<svg width="72" height="72" viewBox="0 0 72 72" fill="none" xmlns="http://www.w3.org/2000/svg">
    <g clip-path="url(#clip0_4156_6109)">
        <path d="M0.167969 44.5394C0.167969 36.7254 1.84239 29.8045 5.19122 23.7766C8.54006 17.6371 13.5633 12.3347 20.261 7.86963L25.6191 13.0603C21.7122 16.1859 18.754 19.2557 16.7447 22.2696C14.7354 25.2836 13.3401 28.5766 12.5587 32.1487C13.0052 32.0371 13.5075 31.9813 14.0656 31.9813C14.7354 31.8696 15.2936 31.8138 15.7401 31.8138C20.6517 31.8138 24.5029 33.3208 27.2936 36.3347C30.0843 39.3487 31.4796 42.9766 31.4796 47.2185C31.4796 51.6836 30.0843 55.4231 27.2936 58.4371C24.5029 61.451 20.6517 62.958 15.7401 62.958C10.9401 62.958 7.14471 61.2836 4.35401 57.9347C1.56332 54.4743 0.167969 50.0092 0.167969 44.5394ZM40.6889 44.5394C40.6889 36.7254 42.3633 29.8045 45.7122 23.7766C49.061 17.6371 54.0842 12.3347 60.7819 7.86963L66.1401 13.0603C62.2331 16.1859 59.2749 19.2557 57.2656 22.2696C55.2563 25.2836 53.861 28.5766 53.0796 32.1487C53.5261 32.0371 54.0284 31.9813 54.5866 31.9813C55.2563 31.8696 55.8145 31.8138 56.261 31.8138C61.1726 31.8138 65.0238 33.3208 67.8145 36.3347C70.6052 39.3487 72.0005 42.9766 72.0005 47.2185C72.0005 51.6836 70.6052 55.4231 67.8145 58.4371C65.0238 61.451 61.1726 62.958 56.261 62.958C51.461 62.958 47.6656 61.2836 44.8749 57.9347C42.0843 54.4743 40.6889 50.0092 40.6889 44.5394Z" fill="#DF5B35"/>
    </g>
    <defs>
        <clipPath id="clip0_4156_6109">
            <rect width="72" height="72" fill="white"/>
        </clipPath>
    </defs>
</svg>
