<svg width="24" height="24" viewBox="0 0 24 24" fill="none" xmlns="http://www.w3.org/2000/svg">
<mask id="mask0_3867_6934" style="mask-type:alpha" maskUnits="userSpaceOnUse" x="0" y="3" width="23" height="20">
<path d="M10.88 21.94L16.42 16.4C16.79 16.03 17 15.52 17 14.99V5.00003C17 3.90003 16.1 3.00003 15 3.00003H6C5.2 3.00003 4.48 3.48003 4.16 4.21003L0.9 11.82C0.0599995 13.8 1.51 16 3.66 16H9.31L8.36 20.58C8.26 21.08 8.41 21.59 8.77 21.95C9.36 22.53 10.3 22.53 10.88 21.94ZM21 3.00003C19.9 3.00003 19 3.90003 19 5.00003V13C19 14.1 19.9 15 21 15C22.1 15 23 14.1 23 13V5.00003C23 3.90003 22.1 3.00003 21 3.00003Z" fill="black"/>
</mask>
<g mask="url(#mask0_3867_6934)">
<rect x="24" y="24" width="24" height="24" transform="rotate(180 24 24)" fill="#DF5B35"/>
</g>
</svg>
