<svg width="768" height="76" viewBox="0 0 768 76" fill="none" xmlns="http://www.w3.org/2000/svg">
<g clip-path="url(#clip0_4752_6769)">
<path d="M67.3311 80.7852C71.4213 82.2935 75.7232 83.1106 80.0554 83.2258C70.0069 73.7341 62.1902 64.5667 61.5326 55.2747C60.1509 35.7526 76.9616 18.7713 76.9616 18.7713C75.8892 24.5799 82.3369 36.9115 96.081 37.8553C112.67 38.9957 116.093 51.1643 118.374 57.1854C120.721 50.7596 121.369 43.8102 120.248 37.0605C126.549 39.3921 130.591 40.3313 139.376 45.1306C148.363 50.0402 148.159 61.1131 147.498 66.126C145.834 78.7436 144.243 94.0888 131.535 104.59C114.663 118.531 89.7222 116.202 75.8279 99.3867C71.2415 93.8362 68.4465 87.4022 67.3448 80.7738L67.3311 80.7852Z" fill="#F2C94C"/>
<path d="M74.3297 7.51566C74.3297 7.51566 87.4635 5.64383 88.3597 15.2094C89.2559 24.7749 89.0609 27.3659 93.4582 30.6654C93.4582 30.6654 86.5209 31.3594 83.1715 23.1583C79.8128 14.9563 79.0542 9.60168 74.3297 7.51566Z" fill="#F2C94C"/>
<path d="M31.6216 35.5673C31.6216 35.5673 69.3134 37.6079 66.5235 64.8009C63.7336 91.9939 61.7563 99.1176 72.204 110.759C72.204 110.759 45.5613 108.82 40.7496 84.0778C40.1438 80.9782 39.7353 78.0265 39.4606 75.2176C47.9961 50.0329 42.1471 42.9463 31.6216 35.5673Z" fill="#F2C94C"/>
<path d="M0 56.8371V67.199V75.7324H768V63.4657L705.067 57.599L628.8 70.399L573.333 53.8657L481.067 70.399L416.533 60.799H339.2L56.5333 60.4943L48.3674 48.3038C44.8498 50.7419 43.9704 57.4466 43.9704 60.4943C41.9603 48.7914 23.9012 41.4212 18.6667 39.999C18.6667 39.999 24.7585 55.2117 19.7333 58.6657C19.1052 58.8689 15.7037 60.3724 10.6785 57.4466C5.65333 54.5209 5.23457 49.3197 5.65333 47.0847C5.65333 47.0847 0 50.7419 0 56.8371Z" fill="#F2C94C"/>
<path d="M426.796 80.7852C430.886 82.2935 435.188 83.1106 439.52 83.2258C429.472 73.7341 421.655 64.5667 420.997 55.2747C419.616 35.7526 436.426 18.7713 436.426 18.7713C435.354 24.5799 441.802 36.9115 455.546 37.8553C472.135 38.9957 475.558 51.1643 477.839 57.1854C480.186 50.7596 480.834 43.8102 479.712 37.0605C486.014 39.3921 490.056 40.3313 498.841 45.1306C507.828 50.0402 507.624 61.1131 506.963 66.126C505.299 78.7436 503.708 94.0888 491 104.59C474.127 118.531 449.187 116.202 435.293 99.3867C430.706 93.8362 427.911 87.4022 426.81 80.7738L426.796 80.7852Z" fill="#F2C94C"/>
<path d="M391.09 35.5673C391.09 35.5673 428.782 37.6079 425.992 64.8009C423.202 91.9939 421.225 99.1176 431.673 110.759C431.673 110.759 405.03 108.82 400.218 84.0778C399.613 80.9782 399.204 78.0265 398.929 75.2176C407.465 50.0329 401.616 42.9463 391.09 35.5673Z" fill="#F2C94C"/>
<path d="M403.199 56.8377V67.1996L345.599 60.4948L353.919 48.3044C357.503 50.7425 358.399 57.4472 358.399 60.4948C360.447 48.792 371.626 43.0218 376.959 41.5996C376.959 41.5996 378.517 55.2123 383.637 58.6663C384.277 58.8695 387.199 60.3729 392.319 57.4472C397.439 54.5215 397.866 49.3202 397.439 47.0853C397.439 47.0853 403.199 50.7425 403.199 56.8377Z" fill="#F2C94C"/>
<path d="M221.339 45.1949C218.929 48.8277 215.94 52.0276 212.512 54.6789C215.016 41.0849 209.225 30.2863 204.268 22.3993C193.854 5.82903 176.945 0.837316 176.945 0.837316C181.24 4.89157 183.32 18.6508 172.786 27.5292C160.072 38.2463 164.495 50.0879 166.21 56.294C160.522 52.4944 155.895 47.2687 152.814 41.1594C149.105 46.7626 146.398 49.9073 142.143 58.9685C137.79 68.2379 144.494 77.0529 147.988 80.7079C156.782 89.9077 167.128 101.352 183.585 102.321C205.434 103.608 224.185 86.9993 225.468 65.2242C225.891 58.0364 224.347 51.1935 221.321 45.1938L221.339 45.1949Z" fill="#F2C94C"/>
<path d="M262.604 36.8337C262.604 36.8337 225.234 31.5078 222.685 58.7243C220.135 85.9409 220.689 93.3131 208.178 102.701C208.178 102.701 234.689 105.979 244.219 82.6441C245.416 79.7215 246.391 76.9055 247.206 74.2036C243.73 47.84 250.845 42.0257 262.604 36.8337Z" fill="#F2C94C"/>
<path d="M606.141 45.1939C608.551 48.8267 611.54 52.0266 614.968 54.6779C612.465 41.084 618.255 30.2853 623.212 22.3983C633.626 5.82805 650.536 0.83634 650.536 0.83634C646.24 4.89059 644.161 18.6498 654.695 27.5282C667.409 38.2453 662.985 50.0869 661.27 56.293C666.959 52.4934 671.586 47.2677 674.667 41.1584C678.375 46.7616 681.082 49.9063 685.337 58.9675C689.69 68.2369 682.986 77.0519 679.493 80.707C670.698 89.9067 660.353 101.351 643.896 102.32C622.046 103.607 603.295 86.9984 602.013 65.2232C601.59 58.0354 603.134 51.1926 606.159 45.1929L606.141 45.1939Z" fill="#F2C94C"/>
<path d="M722.338 36.8327C722.338 36.8327 684.969 31.5068 682.419 58.7234C679.869 85.9399 680.424 93.3121 667.912 102.7C667.912 102.7 694.424 105.978 703.954 82.6431C705.15 79.7205 706.125 76.9045 706.941 74.2026C703.464 47.839 710.579 42.0247 722.338 36.8327Z" fill="#F2C94C"/>
<path d="M322.423 88.251C318.333 89.7594 314.031 90.5765 309.699 90.6916C319.747 81.1999 327.564 72.0326 328.221 62.7406C329.603 43.2184 312.792 26.2372 312.792 26.2372C313.865 32.0457 307.417 44.3773 293.673 45.3212C277.084 46.4615 275.347 49.9775 273.066 55.9986C270.719 49.5728 268.385 51.276 269.506 44.5263C263.205 46.8579 259.163 47.7971 250.378 52.5965C241.391 57.5061 241.595 68.5789 242.256 73.5918C243.92 86.2095 245.511 101.555 258.219 112.055C275.091 125.997 300.032 123.668 313.926 106.853C318.512 101.302 321.307 94.868 322.409 88.2397L322.423 88.251Z" fill="#F2C94C"/>
<path d="M291.483 24.9629C291.483 24.9629 278.349 23.0911 277.453 32.6566C276.557 42.2222 276.752 44.8132 272.354 48.1127C272.354 48.1127 279.292 48.8067 282.641 40.6055C286 32.4035 286.758 27.0489 291.483 24.9629Z" fill="#F2C94C"/>
<path d="M362.631 40.0925C362.631 40.0925 325.262 34.7666 322.712 61.9831C320.162 89.1996 320.717 96.5719 308.205 105.96C308.205 105.96 334.717 109.237 344.247 85.9029C345.443 82.9803 346.418 80.1643 347.233 77.4624C343.757 51.0988 350.872 45.2845 362.631 40.0925Z" fill="#F2C94C"/>
<path d="M585.266 73.0503C581.783 75.6715 577.898 77.6915 573.782 79.0479C580.675 67.0669 585.525 56.0386 583.481 46.9501C579.189 27.8556 558.204 16.4276 558.204 16.4276C560.902 21.6823 558.274 35.3473 545.383 40.2048C529.822 46.0688 529.171 49.9356 528.718 56.3584C524.622 50.8793 522.876 53.1821 522.009 46.395C516.644 50.4408 513.043 52.5029 506.01 59.6264C498.815 66.9137 502.196 77.4597 504.271 82.0706C509.494 93.6764 515.431 107.915 530.623 114.317C550.793 122.816 574.009 113.411 582.479 93.3098C585.275 86.6746 586.101 79.7085 585.25 73.0434L585.266 73.0503Z" fill="#F2C94C"/>
<path d="M537.422 21.3388C537.422 21.3388 524.305 23.324 526.198 32.743C528.091 42.1621 529.023 44.5875 525.761 49.0125C525.761 49.0125 532.605 47.6816 533.454 38.8636C534.311 30.0421 533.497 24.6956 537.422 21.3388Z" fill="#F2C94C"/>
<path d="M609.918 15.3612C609.918 15.3612 572.596 21.0097 577.983 47.8094C583.369 74.6091 586.021 81.5102 576.739 94.1003C576.739 94.1003 603.072 89.6133 605.487 64.5238C605.793 61.3804 605.916 58.4031 605.92 55.5808C595.007 31.3315 600.149 23.7162 609.918 15.3612Z" fill="#F2C94C"/>
<path d="M767.999 48.5328V66.1328L706.362 63.7395C706.306 63.7996 706.245 63.7877 706.189 63.7328L706.362 63.7395C706.578 63.5074 706.713 62.1999 706.189 58.1328C705.529 53.0128 710.859 49.5995 713.606 48.5328C716.903 56.8528 728.097 58.3995 733.866 58.1328L733.384 52.5328C733.384 46.3995 736.177 44.5328 739.199 42.6661C737.881 53.5461 746.02 59.9995 749.866 59.7328C753.066 58.6661 757.253 52.6273 758.399 47.4661C759.466 42.6661 758.399 39.4661 753.165 34.1328C764.373 34.1328 767.725 43.7328 767.999 48.5328Z" fill="#F2C94C"/>
</g>
<defs>
<clipPath id="clip0_4752_6769">
<rect width="768" height="75.7333" fill="white"/>
</clipPath>
</defs>
</svg>
