<svg width="343" height="71" viewBox="0 0 343 71" fill="none" xmlns="http://www.w3.org/2000/svg">
<g clip-path="url(#clip0_4752_6790)">
<path d="M63.1229 75.7366C66.9575 77.1507 70.9905 77.9168 75.0519 78.0247C65.6315 69.1262 58.3033 60.5319 57.6868 51.8206C56.3915 33.5186 72.1515 17.5987 72.1515 17.5987C71.1462 23.0442 77.1908 34.6051 90.076 35.4899C105.628 36.559 108.838 47.9671 110.976 53.6119C113.176 47.5877 113.783 41.0726 112.732 34.7447C118.64 36.9306 122.429 37.8111 130.665 42.3105C139.09 46.9133 138.899 57.294 138.279 61.9937C136.719 73.8227 135.228 88.2088 123.314 98.0533C107.496 111.124 84.1146 108.94 71.0886 93.1756C66.7889 87.972 64.1686 81.9401 63.1357 75.726L63.1229 75.7366Z" fill="#F2C94C"/>
<path d="M69.685 7.04624C69.685 7.04624 81.998 5.29139 82.8382 14.2591C83.6784 23.2268 83.4956 25.6559 87.6181 28.7492C87.6181 28.7492 81.1143 29.3998 77.9743 21.7112C74.8255 14.0218 74.1143 9.00188 69.685 7.04624Z" fill="#F2C94C"/>
<path d="M29.647 33.3447C29.647 33.3447 64.983 35.2578 62.3675 60.7512C59.752 86.2446 57.8982 92.9231 67.693 103.837C67.693 103.837 42.7155 102.019 38.2044 78.8233C37.6365 75.9175 37.2536 73.1502 36.996 70.5169C44.998 46.9062 39.5146 40.2625 29.647 33.3447Z" fill="#F2C94C"/>
<path d="M0 53.2857V63V71H720V59.5L661 54L589.5 66L537.5 50.5L451 66L390.5 57H318L53 56.7143L45.3444 45.2857C42.0467 47.5714 41.2222 53.8571 41.2222 56.7143C39.3378 45.7429 22.4074 38.8333 17.5 37.5C17.5 37.5 23.2111 51.7619 18.5 55C17.9111 55.1905 14.7222 56.6 10.0111 53.8571C5.3 51.1143 4.90741 46.2381 5.3 44.1429C5.3 44.1429 0 47.5714 0 53.2857Z" fill="#F2C94C"/>
<path d="M378 53.2857V63L324 57.5L331.8 45.2857C335.16 47.5714 336 53.8571 336 56.7143C337.92 45.7429 348.4 40.3333 353.4 39C353.4 39 354.86 51.7619 359.66 55C360.26 55.1905 363 56.6 367.8 53.8571C372.6 51.1143 373 46.2381 372.6 44.1429C372.6 44.1429 378 47.5714 378 53.2857Z" fill="#F2C94C"/>
<path d="M207.504 42.3709C205.245 45.7766 202.442 48.7765 199.229 51.2621C201.576 38.5178 196.147 28.394 191.5 21C181.737 5.46539 165.884 0.785655 165.884 0.785655C169.911 4.58652 171.861 17.4858 161.985 25.8093C150.066 35.8566 154.213 46.9581 155.821 52.7763C150.488 49.2141 146.15 44.3151 143.262 38.5876C139.785 43.8406 137.247 46.7888 133.258 55.2836C129.177 63.9737 135.462 72.2378 138.737 75.6644C146.982 84.2891 156.681 95.0181 172.109 95.9267C192.593 97.133 210.172 81.5626 211.374 61.1483C211.771 54.4098 210.324 47.9946 207.487 42.3699L207.504 42.3709Z" fill="#F2C94C"/>
<path d="M246.19 34.5324C246.19 34.5324 211.157 29.5394 208.766 55.0549C206.376 80.5704 206.896 87.4818 195.166 96.283C195.166 96.283 220.02 99.3557 228.955 77.4796C230.077 74.7397 230.99 72.0997 231.755 69.5667C228.496 44.8508 235.166 39.3999 246.19 34.5324Z" fill="#F2C94C"/>
<path d="M302.272 82.7357C298.437 84.1498 294.404 84.9158 290.343 85.0237C299.763 76.1253 307.091 67.5309 307.708 58.8196C309.003 40.5176 293.243 24.5977 293.243 24.5977C294.248 30.0432 288.204 41.6041 275.319 42.489C259.766 43.558 258.138 46.8542 256 52.499C253.8 46.4749 251.611 48.0716 252.662 41.7438C246.755 43.9297 242.966 44.8102 234.73 49.3095C226.304 53.9123 226.496 64.2931 227.115 68.9927C228.675 80.8217 230.166 95.2078 242.08 105.052C257.898 118.123 281.28 115.939 294.306 100.175C298.606 94.971 301.226 88.9391 302.259 82.7251L302.272 82.7357Z" fill="#F2C94C"/>
<path d="M273.264 23.4037C273.264 23.4037 260.951 21.6488 260.111 30.6165C259.271 39.5842 259.454 42.0133 255.331 45.1066C255.331 45.1066 261.835 45.7572 264.975 38.0686C268.124 30.3792 268.835 25.3593 273.264 23.4037Z" fill="#F2C94C"/>
<path d="M339.968 37.5871C339.968 37.5871 304.934 32.5941 302.543 58.1095C300.153 83.625 300.673 90.5365 288.943 99.3377C288.943 99.3377 313.798 102.41 322.732 80.5343C323.854 77.7944 324.768 75.1544 325.532 72.6213C322.273 47.9055 328.943 42.4545 339.968 37.5871Z" fill="#F2C94C"/>
</g>
<defs>
<clipPath id="clip0_4752_6790">
<rect width="343" height="71" fill="white"/>
</clipPath>
</defs>
</svg>
