<svg width="240" height="239" viewBox="0 0 240 239" fill="none" xmlns="http://www.w3.org/2000/svg">
<g clip-path="url(#clip0_4191_8360)">
<path d="M229.599 122.169C225.303 129.599 219.823 136.245 213.422 141.862C223.754 57.9795 137.633 39.9961 137.633 39.9961C146.504 47.479 152.158 74.3233 132.571 93.0219C108.932 115.593 118.951 138.39 123.021 150.408C111.454 143.588 101.8 133.838 95.0679 122.169C88.4579 133.629 84.6484 146.92 84.6484 161.118C84.6484 204.132 119.421 239 162.316 239C205.212 239 239.984 204.132 239.984 161.118C239.984 146.92 236.174 133.629 229.564 122.169H229.599Z" fill="#F2C94C"/>
<path d="M120.222 0C120.222 0 90.268 18.4369 104.566 39.5949C118.865 60.753 123.631 65.7416 120.222 79.9748C120.222 79.9748 135.547 69.6313 128.554 47.1128C121.579 24.5768 114.099 12.2971 120.222 0Z" fill="#F2C94C"/>
<path d="M-16.9037 171.184C-12.6072 178.615 -7.12787 185.261 -0.726593 190.877C-11.0591 106.995 75.0624 89.0117 75.0624 89.0117C66.1911 96.4946 60.5378 123.339 80.1243 142.038C103.764 164.608 93.7444 187.406 89.674 199.424C101.242 192.604 110.896 182.853 117.627 171.184C124.237 182.644 128.047 195.936 128.047 210.134C128.047 253.148 93.2747 288.016 50.3792 288.016C7.48374 288.016 -27.2884 253.148 -27.2884 210.134C-27.2884 195.936 -23.479 182.644 -16.8689 171.184H-16.9037Z" fill="#F2C94C"/>
</g>
<defs>
<clipPath id="clip0_4191_8360">
<rect width="240" height="239" fill="white"/>
</clipPath>
</defs>
</svg>
