<svg width="141" height="323" viewBox="0 0 141 323" fill="none" xmlns="http://www.w3.org/2000/svg">
<path d="M195.847 118.827C198.376 130.021 199.028 141.529 197.838 152.875C176.524 123.384 155.29 99.829 131.266 94.915C80.793 84.591 30.69 122.619 30.69 122.619C46.218 121.819 76.182 142.89 73.915 179.084C71.182 222.771 101.761 235.893 116.69 243.918C99.112 247.831 80.753 247.13 63.524 241.88C67.44 259.129 68.5 270 78.002 294.579C87.722 319.723 116.69 323 130 323C163.502 323 204.097 324.131 235.876 294.579C278.067 255.343 280.572 189.452 241.469 147.404C228.562 133.524 212.732 124.016 195.813 118.859L195.847 118.827Z" fill="#F2C94C"/>
<path d="M2.21798 111.881C2.21798 111.881 -7.18703 145.514 17.469 151.145C42.124 156.775 48.954 157.158 56.051 169.77C56.051 169.77 60.25 151.904 39.999 140.34C19.75 128.752 6.03598 124.929 2.21798 111.881Z" fill="#F2C94C"/>
<path d="M106.271 0.253998C106.271 0.253998 79.511 95.948 149.663 111.969C219.815 127.99 239.246 129.08 259.441 164.963C259.441 164.963 277.118 96.902 219.5 64C212.284 59.871 205.271 56.358 198.5 53.3C128.5 53.3 115.775 32.73 106.271 0.253998Z" fill="#F2C94C"/>
</svg>
