<svg width="277" height="164" viewBox="0 0 277 164" fill="none" xmlns="http://www.w3.org/2000/svg">
<path opacity="0.05" d="M332.724 275C376.783 275 384 251.07 384 209.669H367.668C367.668 242.334 363.49 250.311 358.172 250.311C351.715 250.311 349.436 240.435 344.878 222.583C330.065 163.709 325.887 155.732 260.178 134.461C298.54 121.547 282.588 26.5884 315.632 23.5497C304.617 29.6271 302.718 40.2624 302.718 49.3785C302.718 66.471 316.392 77.866 335.763 77.866C355.134 77.866 369.187 63.8121 369.187 39.1229C369.187 13.2942 350.196 0 327.786 0C251.062 0 284.487 126.485 241.187 126.485H227.513V23.1699H248.024V6.45717H136.736V23.1699H157.246V126.485H142.433C99.1335 126.485 132.938 0 55.8338 0C33.8042 0 14.8131 13.2942 14.8131 39.1229C14.8131 63.8121 28.8665 77.866 49.3769 77.866C69.1276 77.866 80.1424 66.0911 80.1424 48.9986C80.1424 37.2238 75.2048 26.9682 66.8487 21.6505C100.653 31.9061 83.5608 123.826 121.163 134.461C57.7329 156.492 53.9347 163.709 39.1217 222.583C34.5638 240.435 32.2849 250.311 26.2077 250.311C20.5104 250.311 16.3323 242.334 16.3323 209.669H0C0 251.83 6.8368 275 51.276 275C88.8783 275 102.932 254.489 111.668 222.963C120.783 192.196 121.923 143.198 148.131 143.198H157.246V251.83H136.736V268.543H248.024V251.83H227.513V143.198H235.869C262.077 143.198 262.837 192.196 271.953 222.963C280.688 254.489 295.122 275 332.724 275Z" fill="#242121"/>
</svg>
