<svg width="798" height="188" viewBox="0 0 798 188" fill="none" xmlns="http://www.w3.org/2000/svg">
<path d="M0.523438 13.6H52.9234V26.4H0.523438V13.6ZM75.1453 0.799995H90.3453L148.545 185.6H133.345L75.1453 0.799995ZM151.953 174.4H231.153V187.6H151.953V174.4ZM277.203 185.6C255.07 160.4 244.003 129.733 244.003 93.6C244.003 58.1333 255.07 27.4 277.203 1.39999H293.803C272.203 27.9333 261.403 58.6667 261.403 93.6C261.403 128 272.203 158.667 293.803 185.6H277.203ZM390 5.79999L374.8 10.8C379.8 21.4 391 52.2 394.4 63.6L410 58.2C406.6 47 394.4 15.2 390 5.79999ZM479 18.6L460.4 13.2C456.6 43.4 444.2 75.4 428.4 95.6C408.2 121.2 378.4 140.4 350 148.8L363.6 162.6C392 152.6 421.4 132 442 104.8C458.6 83.2 469.2 54.8 475.4 29.8C476.2 26.8 477.6 21.8 479 18.6ZM334.2 17.8L318.6 23.4C323.2 32.2 337 66 340.8 78.4L356.8 72.6C352 59.4 339.6 29 334.2 17.8ZM504.2 185.6C525.8 159.067 536.6 128.333 536.6 93.4C536.6 59 525.8 28.3333 504.2 1.39999H520.8C542.933 28.2 554 58.8667 554 93.4C554 128.867 542.933 159.6 520.8 185.6H504.2ZM566.797 174.4H645.997V187.6H566.797V174.4ZM707.647 0.799995H722.847L664.647 185.6H649.447L707.647 0.799995ZM745.055 13.6H797.455V26.4H745.055V13.6Z" fill="black"/>
</svg>
