<svg width="357" height="169" viewBox="0 0 357 169" fill="none" xmlns="http://www.w3.org/2000/svg">
    <path d="M293.973 338.132C348.13 338.132 357 308.709 357 257.802H336.925C336.925 297.967 331.789 307.775 325.253 307.775C317.317 307.775 314.515 295.632 308.913 273.681C290.705 201.291 285.57 191.484 204.802 165.33C251.955 149.451 232.347 32.6923 272.964 28.956C259.425 36.4286 257.091 49.5055 257.091 60.7143C257.091 81.7308 273.898 95.7418 297.708 95.7418C321.518 95.7418 338.792 78.4616 338.792 48.1044C338.792 16.3461 315.449 0 287.904 0C193.597 0 234.681 155.522 181.459 155.522H164.652V28.489H189.863V7.93955H53.0712V28.489H78.2819V155.522H60.0742C6.85163 155.522 48.4026 0 -46.3709 0C-73.4491 0 -96.7923 16.3461 -96.7923 48.1044C-96.7923 78.4616 -79.5183 95.7418 -54.3076 95.7418C-30.0307 95.7418 -16.4916 81.2638 -16.4916 60.2473C-16.4916 45.7692 -22.5608 33.1593 -32.8318 26.6209C8.71909 39.2308 -12.2898 152.253 33.9298 165.33C-44.0366 192.418 -48.7052 201.291 -66.913 273.681C-72.5153 295.632 -75.3165 307.775 -82.7864 307.775C-89.7893 307.775 -94.9248 297.967 -94.9248 257.802H-115C-115 309.643 -106.596 338.132 -51.9733 338.132C-5.75371 338.132 11.5203 312.912 22.2582 274.148C33.4629 236.319 34.8635 176.072 67.0772 176.072H78.2819V309.643H53.0712V330.192H189.863V309.643H164.652V176.072H174.923C207.137 176.072 208.07 236.319 219.275 274.148C230.013 312.912 247.754 338.132 293.973 338.132Z" fill="white"/>
</svg>
