<svg width="250" height="205" viewBox="0 0 250 205" fill="none" xmlns="http://www.w3.org/2000/svg">
<path d="M201.261 261.479C243.14 261.479 250 238.726 250 199.36H234.476C234.476 230.42 230.504 238.004 225.45 238.004C219.313 238.004 217.146 228.614 212.814 211.639C198.734 155.66 194.763 148.075 132.305 127.85C168.769 115.571 153.605 25.2811 185.015 22.3919C174.545 28.1704 172.74 38.2829 172.74 46.9507C172.74 63.2029 185.737 74.0376 204.149 74.0376C222.562 74.0376 235.92 60.6747 235.92 37.1994C235.92 12.6406 217.868 0 196.568 0C123.64 0 155.41 120.266 114.253 120.266H101.256V22.0307H120.752V6.13969H14.9703V22.0307H34.4659V120.266H20.3858C-20.7715 120.266 11.36 0 -61.9288 0C-82.8684 0 -100.92 12.6406 -100.92 37.1994C-100.92 60.6747 -87.5618 74.0376 -68.0663 74.0376C-49.2928 74.0376 -38.823 62.8417 -38.823 46.5895C-38.823 35.3936 -43.5163 25.6423 -51.459 20.5861C-19.3274 30.3374 -35.5737 117.738 0.168144 127.85C-60.1236 148.798 -63.7339 155.66 -77.814 211.639C-82.1464 228.614 -84.3126 238.004 -90.089 238.004C-95.5045 238.004 -99.4758 230.42 -99.4758 199.36H-115C-115 239.449 -108.501 261.479 -66.2611 261.479C-30.5193 261.479 -17.1612 241.977 -8.85757 212C-0.192879 182.747 0.890205 136.157 25.8012 136.157H34.4659V239.449H14.9703V255.34H120.752V239.449H101.256V136.157H109.199C134.11 136.157 134.832 182.747 143.497 212C151.8 241.977 165.519 261.479 201.261 261.479Z" fill="white"/>
</svg>
