<svg width="349" height="560" viewBox="0 0 349 560" fill="none" xmlns="http://www.w3.org/2000/svg">
<mask id="path-1-outside-1_4212_3394" maskUnits="userSpaceOnUse" x="0" y="0" width="350" height="560" fill="black">
<rect fill="white" width="350" height="560"/>
<path fill-rule="evenodd" clip-rule="evenodd" d="M2.6232 153.782L61 90.5L90.5 151.5L207.5 1V151.5L309.5 101L248 221.155L322.5 422L248 392.5L291.5 474L242.162 482.131L348 537.5L242.162 526.151L272 558H240L239.872 557.784C239.145 558.534 238.127 559 237 559H5C2.79086 559 1 557.209 1 555V157C1 156.284 1.18821 155.612 1.51785 155.03L1.5 155L1.60045 154.891C1.86849 154.46 2.21628 154.083 2.6232 153.782Z"/>
</mask>
<path fill-rule="evenodd" clip-rule="evenodd" d="M2.6232 153.782L61 90.5L90.5 151.5L207.5 1V151.5L309.5 101L248 221.155L322.5 422L248 392.5L291.5 474L242.162 482.131L348 537.5L242.162 526.151L272 558H240L239.872 557.784C239.145 558.534 238.127 559 237 559H5C2.79086 559 1 557.209 1 555V157C1 156.284 1.18821 155.612 1.51785 155.03L1.5 155L1.60045 154.891C1.86849 154.46 2.21628 154.083 2.6232 153.782Z" fill="white"/>
<path d="M61 90.5L61.9003 90.0646C61.7562 89.7667 61.4741 89.5594 61.1468 89.5108C60.8195 89.4623 60.4893 89.5787 60.265 89.822L61 90.5ZM2.6232 153.782L3.218 154.586C3.2686 154.549 3.31555 154.507 3.35823 154.46L2.6232 153.782ZM90.5 151.5L89.5997 151.935C89.7503 152.247 90.0511 152.458 90.395 152.494C90.7389 152.531 91.0772 152.387 91.2895 152.114L90.5 151.5ZM207.5 1H208.5C208.5 0.572753 208.229 0.1927 207.824 0.0540895C207.42 -0.0845212 206.973 0.0489326 206.711 0.386241L207.5 1ZM207.5 151.5H206.5C206.5 151.846 206.679 152.167 206.973 152.35C207.266 152.532 207.634 152.55 207.944 152.396L207.5 151.5ZM309.5 101L310.39 101.456C310.587 101.072 310.515 100.605 310.212 100.298C309.909 99.9905 309.443 99.9124 309.056 100.104L309.5 101ZM248 221.155L247.11 220.7C246.982 220.949 246.965 221.241 247.062 221.503L248 221.155ZM322.5 422L322.132 422.93C322.499 423.075 322.917 422.991 323.199 422.715C323.482 422.439 323.575 422.022 323.438 421.652L322.5 422ZM248 392.5L248.368 391.57C247.978 391.416 247.533 391.521 247.254 391.834C246.975 392.147 246.92 392.601 247.118 392.971L248 392.5ZM291.5 474L291.663 474.987C291.981 474.934 292.254 474.732 292.397 474.443C292.539 474.154 292.534 473.814 292.382 473.529L291.5 474ZM242.162 482.131L241.999 481.145C241.575 481.215 241.242 481.548 241.174 481.973C241.106 482.397 241.317 482.818 241.698 483.017L242.162 482.131ZM348 537.5L347.893 538.494C348.371 538.546 348.818 538.25 348.957 537.79C349.096 537.33 348.889 536.837 348.464 536.614L348 537.5ZM242.162 526.151L242.268 525.156C241.853 525.112 241.453 525.331 241.267 525.705C241.08 526.079 241.146 526.529 241.432 526.834L242.162 526.151ZM272 558V559C272.399 559 272.759 558.763 272.918 558.398C273.076 558.032 273.002 557.607 272.73 557.316L272 558ZM240 558L239.139 558.509C239.319 558.813 239.647 559 240 559V558ZM239.872 557.784L240.733 557.275C240.574 557.006 240.299 556.828 239.99 556.791C239.68 556.754 239.371 556.864 239.154 557.088L239.872 557.784ZM1.51785 155.03L2.38778 155.523C2.56449 155.212 2.56093 154.829 2.37844 154.521L1.51785 155.03ZM1.5 155L0.764985 154.322C0.465514 154.647 0.414473 155.129 0.639418 155.509L1.5 155ZM1.60045 154.891L2.33546 155.569C2.37819 155.523 2.41645 155.473 2.44972 155.419L1.60045 154.891ZM60.265 89.822L1.88818 153.104L3.35823 154.46L61.735 91.178L60.265 89.822ZM91.4003 151.065L61.9003 90.0646L60.0997 90.9354L89.5997 151.935L91.4003 151.065ZM206.711 0.386241L89.7105 150.886L91.2895 152.114L208.289 1.61376L206.711 0.386241ZM208.5 151.5V1H206.5V151.5H208.5ZM309.056 100.104L207.056 150.604L207.944 152.396L309.944 101.896L309.056 100.104ZM248.89 221.611L310.39 101.456L308.61 100.544L247.11 220.7L248.89 221.611ZM323.438 421.652L248.938 220.808L247.062 221.503L321.562 422.348L323.438 421.652ZM247.632 393.43L322.132 422.93L322.868 421.07L248.368 391.57L247.632 393.43ZM292.382 473.529L248.882 392.029L247.118 392.971L290.618 474.471L292.382 473.529ZM242.324 483.118L291.663 474.987L291.337 473.013L241.999 481.145L242.324 483.118ZM348.464 536.614L242.625 481.245L241.698 483.017L347.536 538.386L348.464 536.614ZM242.055 527.145L347.893 538.494L348.107 536.506L242.268 525.156L242.055 527.145ZM272.73 557.316L242.891 525.467L241.432 526.834L271.27 558.684L272.73 557.316ZM240 559H272V557H240V559ZM239.012 558.293L239.139 558.509L240.861 557.491L240.733 557.275L239.012 558.293ZM239.154 557.088C238.608 557.652 237.845 558 237 558V560C238.409 560 239.683 559.416 240.59 558.48L239.154 557.088ZM237 558H5V560H237V558ZM5 558C3.34314 558 2 556.657 2 555H0C0 557.761 2.23858 560 5 560V558ZM2 555V157H0V555H2ZM2 157C2 156.461 2.14115 155.958 2.38778 155.523L0.647922 154.537C0.235258 155.265 0 156.106 0 157H2ZM0.639418 155.509L0.657272 155.539L2.37844 154.521L2.36058 154.491L0.639418 155.509ZM0.865433 154.213L0.764985 154.322L2.23502 155.678L2.33546 155.569L0.865433 154.213ZM2.44972 155.419C2.6509 155.095 2.91223 154.813 3.218 154.586L2.02841 152.979C1.52034 153.354 1.08609 153.824 0.751174 154.363L2.44972 155.419Z" fill="#D6D6D6" mask="url(#path-1-outside-1_4212_3394)"/>
</svg>
