<svg width="720" height="54" viewBox="0 0 720 54" fill="none" xmlns="http://www.w3.org/2000/svg">
<g clip-path="url(#clip0_8_2)">
<path fill-rule="evenodd" clip-rule="evenodd" d="M-0.00195681 33.3885L-0.00390625 63.3869L263.331 53.9932L538.704 133.108L553.21 103.886L541.21 92.8857L549.669 79.8867L719.998 79.8869L719.999 79.8866L720.002 45.3866L708.999 49.8864L714.498 9.88599L700.498 40.3859L662.498 29.3859L650.756 44.0075L638.498 19.386L620.838 46.7432L598.998 34.3859L568.238 51.3505L588.497 20.2174L532.014 42.9759L511.998 23.8865L486.71 48.8867L434.498 9.88653L424.395 34.9766L376.253 20.2169L353.755 44.0079L323.838 16.8865V46.7437L306.498 20.2169L269.766 47.2027L253.576 36.9412L217.043 46.7444L215.706 0L187.125 44.0087L164.627 20.2177L116.485 34.9773L132.437 3.61843L54.1699 48.8875L32.1699 22.8875L8.86544 42.9766L-0.00195681 33.3885Z" fill="white"/>
</g>
<defs>
<clipPath id="clip0_8_2">
<rect width="720" height="134" fill="white"/>
</clipPath>
</defs>
</svg>
