<svg width="201" height="61" viewBox="0 0 201 61" fill="none" xmlns="http://www.w3.org/2000/svg">
<rect x="0.949035" y="8.95019" width="150" height="36" rx="5" transform="rotate(-3 0.949035 8.95019)" fill="white"/>
<rect x="0.949035" y="8.95019" width="150" height="36" rx="5" transform="rotate(-3 0.949035 8.95019)" stroke="#F2C94C" stroke-width="2"/>
<path d="M18.1854 26.2222L14.555 32.2705L11.4093 32.4353L15.7675 25.4837L10.9514 19.5716L13.9713 19.4134L18.1129 24.8381L17.818 19.2118L20.6761 19.062L20.9719 24.7063L24.5767 18.8576L27.5427 18.7021L23.3654 24.9774L28.4679 31.5413L25.2503 31.7099L21.0416 26.0364L21.3497 31.9144L18.4916 32.0641L18.1854 26.2222ZM29.758 31.4737L29.2654 22.0726L31.8358 21.9379L32.1646 28.2113L35.4668 21.7476L38.0373 21.6129L38.53 31.014L35.9595 31.1487L35.6308 24.8753L32.3285 31.339L29.758 31.4737ZM47.7817 23.4634C47.8414 24.6019 47.279 25.3343 46.0944 25.6607C47.5204 25.8143 48.2642 26.4783 48.3257 27.6527L48.3286 27.7066C48.3738 28.5694 48.0397 29.3019 47.3262 29.9041C46.6127 30.5063 45.6568 30.8387 44.4585 30.9016C43.1642 30.9694 42.1422 30.7285 41.3925 30.179C40.654 29.6169 40.1846 28.8003 39.9843 27.7294L42.3031 27.6078C42.4493 28.1049 42.6788 28.4714 42.9916 28.7073C43.3158 28.9307 43.7594 29.0276 44.3227 28.998C45.2574 28.9491 45.704 28.5291 45.6626 27.7382L45.6597 27.6843C45.6227 26.9772 45.1428 26.6479 44.2201 26.6963L42.9977 26.7603L42.9129 25.1425L43.9735 25.087C44.7884 25.0443 45.1782 24.6874 45.1431 24.0163L45.1412 23.9803C45.1079 23.3452 44.6778 23.0493 43.8509 23.0926C43.0121 23.1366 42.5062 23.5717 42.3332 24.3979L40.0144 24.5194C40.0663 23.4472 40.4497 22.622 41.1644 22.0438C41.8911 21.465 42.7757 21.1483 43.8183 21.0936C44.9447 21.0346 45.8734 21.2142 46.6043 21.6325C47.3472 22.0502 47.739 22.6485 47.7799 23.4275L47.7817 23.4634ZM52.9661 30.4557C52.0554 30.5034 51.3068 30.3203 50.7203 29.9065C50.0714 29.4478 49.7225 28.7511 49.6735 27.8164C49.6189 26.7738 50.0334 25.971 50.9172 25.408C51.7082 24.9099 52.8706 24.6207 54.4045 24.5403L55.4651 24.4847L55.4453 24.1072C55.4139 23.5081 55.2771 23.0766 55.035 22.8129C54.8048 22.5486 54.4022 22.4315 53.8269 22.4617C52.9042 22.51 52.3942 22.9814 52.2968 23.8757L49.8342 24.0048C49.8509 22.9464 50.2456 22.1086 51.0183 21.4913C51.7223 20.9377 52.6795 20.6292 53.8898 20.5658C55.1001 20.5024 56.0607 20.7164 56.7714 21.2079C57.5325 21.7448 57.9451 22.6244 58.0092 23.8467L58.3304 29.9763L55.7959 30.1091L55.7365 28.9767C55.1479 29.8967 54.2244 30.3897 52.9661 30.4557ZM53.6439 28.5997C54.2311 28.5689 54.7086 28.3937 55.0764 28.074C55.4442 27.7543 55.6145 27.3368 55.5875 26.8215L55.5461 26.0306L54.5395 26.0833C53.7485 26.1248 53.1547 26.2581 52.7579 26.4831C52.3732 26.7076 52.1933 27.0595 52.2185 27.5388C52.258 28.2938 52.7332 28.6474 53.6439 28.5997ZM68.8228 29.6247C67.4087 29.6988 66.2366 29.3456 65.3065 28.5652C64.3385 27.7508 63.8153 26.5946 63.7368 25.0966L63.7293 24.9528C63.652 23.4789 64.0626 22.2557 64.9609 21.2834C65.8145 20.3734 66.9363 19.8821 68.3264 19.8092C69.5367 19.7458 70.5335 19.9639 71.3167 20.4636C72.2122 21.0415 72.7531 21.9625 72.9396 23.2264L70.4769 23.3555C70.2652 22.2971 69.6022 21.7972 68.4877 21.8556C67.7927 21.892 67.2543 22.1665 66.8726 22.6792C66.5029 23.1913 66.3413 23.8907 66.3877 24.7775L66.3953 24.9213C66.4443 25.856 66.6794 26.5586 67.1006 27.0292C67.5331 27.4872 68.1149 27.6971 68.8459 27.6588C69.3972 27.6299 69.8444 27.4502 70.1875 27.1198C70.5427 26.7888 70.7349 26.3281 70.764 25.7377L73.1188 25.6143C73.1078 26.7805 72.7298 27.7076 71.9848 28.3955C71.195 29.1459 70.141 29.5556 68.8228 29.6247ZM79.237 27.0962C79.968 27.0579 80.518 26.7767 80.8871 26.2527C81.2681 25.728 81.4351 25.0163 81.388 24.1175L81.3814 23.9917C81.3343 23.0929 81.0939 22.4026 80.66 21.9206C80.2376 21.426 79.6608 21.1979 78.9298 21.2362C78.2108 21.2739 77.6608 21.5551 77.2797 22.0797C76.898 22.5924 76.7307 23.2981 76.7778 24.1969L76.7854 24.3407C76.8331 25.2514 77.0679 25.9481 77.4897 26.4307C77.9116 26.9133 78.494 27.1351 79.237 27.0962ZM79.3226 29.0744C77.8846 29.1498 76.6873 28.7739 75.7307 27.9468C74.7381 27.1217 74.2039 25.9841 74.1279 24.534L74.1203 24.3902C74.0443 22.9402 74.4558 21.735 75.3548 20.7747C76.2311 19.8395 77.3882 19.3343 78.8262 19.2589C80.2762 19.1829 81.4795 19.5585 82.4361 20.3855C83.4186 21.2473 83.9472 22.3912 84.0219 23.8173L84.0294 23.9611C84.1054 25.4111 83.6939 26.6163 82.795 27.5766C81.9301 28.4991 80.7726 28.9984 79.3226 29.0744ZM85.4207 19.1296L89.5191 18.9148C90.6216 18.8571 91.4944 19.0036 92.1377 19.3544C92.7803 19.6932 93.1223 20.2581 93.1638 21.049L93.1657 21.085C93.2241 22.1994 92.6616 22.9319 91.4783 23.2823C92.9415 23.4579 93.7039 24.133 93.7655 25.3074L93.7664 25.3253C93.8135 26.2241 93.544 26.9292 92.958 27.4405C92.372 27.9519 91.4858 28.2387 90.2994 28.3009L85.9134 28.5307L85.4207 19.1296ZM88.0769 20.6307L88.189 22.7697L89.2136 22.716C90.1244 22.6683 90.5603 22.2729 90.5213 21.53L90.5204 21.512C90.5003 21.1285 90.3666 20.8712 90.1194 20.7399C89.8722 20.6087 89.497 20.5562 88.9937 20.5826L88.0769 20.6307ZM88.2738 24.3875L88.3991 26.7782L89.6394 26.7132C90.67 26.6592 91.1645 26.2368 91.1231 25.4458L91.1221 25.4279C91.0807 24.6369 90.5866 24.2663 89.6399 24.3159L88.2738 24.3875ZM100.123 27.9843C98.6613 28.0609 97.4706 27.6967 96.5512 26.8917C95.5713 26.0779 95.0427 24.934 94.9654 23.46L94.9579 23.3162C94.8813 21.8542 95.2865 20.6434 96.1735 19.6836C97.0377 18.7491 98.1589 18.2457 99.537 18.1735C100.843 18.1051 101.93 18.4266 102.796 19.1383C103.763 19.9288 104.288 21.1209 104.371 22.7147L104.409 23.4337L97.6323 23.7889C97.7097 24.5779 97.9574 25.1778 98.3755 25.5885C98.8049 25.9865 99.3792 26.1667 100.098 26.1291C101.225 26.07 101.855 25.5984 101.989 24.7142L104.451 24.5851C104.349 25.6119 103.923 26.4213 103.173 27.0134C102.434 27.5928 101.418 27.9165 100.123 27.9843ZM101.791 21.9668C101.633 20.5691 100.913 19.9039 99.6312 19.9711C99.044 20.0018 98.5684 20.213 98.2044 20.6046C97.8518 20.9836 97.6451 21.5111 97.5844 22.1872L101.791 21.9668ZM113.056 19.5379L110.269 19.6839L110.665 27.2335L108.077 27.3692L107.681 19.8196L104.895 19.9656L104.798 18.1141L112.958 17.6864L113.056 19.5379ZM117.986 25.8946L113.804 17.6421L116.608 17.4951L119.187 23.0198L120.994 17.2653L123.493 17.1343L119.066 30.0016L116.55 30.1335L117.986 25.8946ZM129.281 26.4562C127.819 26.5328 126.628 26.1687 125.708 25.3637C124.729 24.5498 124.2 23.4059 124.123 21.932L124.115 21.7882C124.039 20.3262 124.444 19.1153 125.331 18.1556C126.195 17.221 127.316 16.7177 128.694 16.6455C130 16.577 131.087 16.8986 131.953 17.6102C132.92 18.4007 133.445 19.5929 133.529 21.1867L133.566 21.9057L126.79 22.2608C126.867 23.0499 127.115 23.6497 127.533 24.0604C127.962 24.4585 128.536 24.6387 129.255 24.601C130.382 24.542 131.012 24.0703 131.146 23.1861L133.609 23.057C133.506 24.0838 133.08 24.8932 132.33 25.4853C131.591 26.0647 130.575 26.3884 129.281 26.4562ZM130.948 20.4387C130.791 19.041 130.071 18.3758 128.788 18.443C128.201 18.4738 127.726 18.6849 127.362 19.0765C127.009 19.4555 126.802 19.983 126.742 20.6591L130.948 20.4387ZM142.213 18.0098L139.427 18.1558L139.822 25.7055L137.234 25.8411L136.838 18.2915L134.052 18.4375L133.955 16.586L142.116 16.1584L142.213 18.0098Z" fill="#262626"/>
<rect x="49.4613" y="18.3934" width="150" height="36" rx="5" transform="rotate(2 49.4613 18.3934)" fill="white"/>
<rect x="49.4613" y="18.3934" width="150" height="36" rx="5" transform="rotate(2 49.4613 18.3934)" stroke="#F2C94C" stroke-width="2"/>
<path d="M65.1259 37.1011L60.9821 42.81L57.834 42.7001L62.7815 36.1547L58.4991 29.8454L61.5212 29.951L65.1742 35.716L65.3709 30.0854L68.2311 30.1853L68.0339 35.8339L72.1347 30.3216L75.1029 30.4253L70.3946 36.3125L74.9056 43.2962L71.6856 43.1838L67.9874 37.165L67.782 43.0475L64.9217 42.9476L65.1259 37.1011ZM76.1968 43.3413L76.5253 33.933L79.0977 34.0229L78.8785 40.301L82.7315 34.1498L85.304 34.2396L84.9754 43.6479L82.403 43.558L82.6222 37.2799L78.7692 43.4311L76.1968 43.3413ZM94.85 36.9324C94.8102 38.0717 94.1861 38.7523 92.9776 38.9743C94.3848 39.2516 95.0679 39.9778 95.0268 41.1531L95.0249 41.2071C94.9948 42.0706 94.5981 42.7712 93.8349 43.3088C93.0716 43.8465 92.0904 44.0944 90.8911 44.0526C89.5959 44.0073 88.5988 43.6783 87.8997 43.0656C87.2131 42.4412 86.8167 41.5869 86.7105 40.5025L89.031 40.5835C89.1334 41.0914 89.3301 41.4765 89.6211 41.7388C89.9245 41.9896 90.3581 42.1248 90.9217 42.1445C91.8571 42.1771 92.3387 41.7977 92.3663 41.0062L92.3682 40.9522C92.3929 40.2447 91.9436 39.8747 91.0201 39.8425L89.7969 39.7998L89.8534 38.1808L90.9147 38.2178C91.7303 38.2463 92.1497 37.9248 92.1732 37.2532L92.1744 37.2172C92.1966 36.5816 91.794 36.2493 90.9665 36.2204C90.127 36.1911 89.5851 36.5804 89.3407 37.3884L87.0202 37.3074C87.1654 36.2438 87.6192 35.4551 88.3816 34.9414C89.1559 34.4281 90.0648 34.1897 91.1082 34.2262C92.2355 34.2655 93.145 34.5254 93.8366 35.0059C94.5403 35.4867 94.8785 36.1169 94.8513 36.8964L94.85 36.9324ZM99.4053 44.3499C98.4938 44.3181 97.764 44.0704 97.2159 43.607C96.6094 43.0935 96.3225 42.3691 96.3552 41.4337C96.3916 40.3903 96.8746 39.6267 97.804 39.1428C98.6354 38.7156 99.8187 38.5288 101.354 38.5824L102.415 38.6194L102.428 38.2417C102.449 37.642 102.351 37.2003 102.132 36.9165C101.926 36.6332 101.535 36.4814 100.96 36.4613C100.036 36.4291 99.4869 36.8542 99.312 37.7366L96.8475 37.6505C96.9563 36.5977 97.4225 35.7975 98.2461 35.2499C98.9957 34.7598 99.9761 34.5358 101.187 34.5781C102.399 34.6204 103.337 34.9173 104.002 35.4689C104.713 36.0701 105.048 36.9823 105.005 38.2056L104.791 44.3398L102.254 44.2513L102.294 43.118C101.627 43.9832 100.664 44.3939 99.4053 44.3499ZM100.242 42.56C100.83 42.5805 101.321 42.4476 101.715 42.1612C102.109 41.8747 102.315 41.4737 102.333 40.958L102.361 40.1665L101.354 40.1313C100.562 40.1037 99.959 40.1847 99.5441 40.3743C99.1412 40.5644 98.9314 40.8992 98.9146 41.379C98.8883 42.1345 99.3308 42.5282 100.242 42.56ZM115.274 44.904C113.859 44.8546 112.722 44.4007 111.863 43.5422C110.97 42.6465 110.55 41.4491 110.602 39.95L110.607 39.8061C110.659 38.331 111.174 37.1482 112.154 36.2579C113.083 35.4258 114.244 35.0341 115.635 35.0826C116.846 35.1249 117.82 35.4291 118.557 35.9952C119.399 36.649 119.857 37.6135 119.933 38.889L117.468 38.8029C117.35 37.7301 116.733 37.1742 115.617 37.1353C114.922 37.111 114.361 37.3376 113.937 37.815C113.524 38.2929 113.302 38.9756 113.271 39.863L113.266 40.007C113.233 40.9424 113.406 41.6629 113.785 42.1684C114.176 42.6623 114.737 42.9221 115.468 42.9476C116.02 42.9669 116.481 42.8269 116.852 42.5277C117.235 42.2288 117.466 41.7866 117.547 41.2011L119.903 41.2834C119.791 42.4442 119.333 43.3347 118.531 43.9551C117.679 44.6338 116.593 44.9501 115.274 44.904ZM125.869 43.2928C126.6 43.3184 127.173 43.0862 127.586 42.5963C128.012 42.1069 128.24 41.4124 128.271 40.513L128.276 40.387C128.307 39.4876 128.128 38.7789 127.738 38.261C127.36 37.7315 126.805 37.4539 126.074 37.4284C125.354 37.4033 124.782 37.6354 124.356 38.1249C123.931 38.6023 123.703 39.2908 123.672 40.1902L123.667 40.3342C123.635 41.2456 123.808 41.9601 124.186 42.4776C124.565 42.9951 125.125 43.2668 125.869 43.2928ZM125.782 45.271C124.343 45.2207 123.183 44.7419 122.302 43.8347C121.385 42.9261 120.952 41.7463 121.003 40.2952L121.008 40.1512C121.058 38.7001 121.573 37.5354 122.552 36.657C123.507 35.8018 124.704 35.3993 126.143 35.4496C127.594 35.5003 128.76 35.9792 129.641 36.8865C130.544 37.8307 130.971 39.0163 130.921 40.4434L130.916 40.5873C130.866 42.0384 130.351 43.2032 129.372 44.0815C128.43 44.9252 127.233 45.3217 125.782 45.271ZM132.723 35.8955L136.825 36.0388C137.928 36.0773 138.785 36.2993 139.395 36.7049C140.006 37.0984 140.297 37.6909 140.27 38.4825L140.269 38.5184C140.23 39.6338 139.605 40.3144 138.396 40.5603C139.838 40.8629 140.539 41.6018 140.498 42.777L140.497 42.795C140.466 43.6945 140.136 44.3734 139.508 44.8317C138.879 45.2901 137.972 45.4985 136.784 45.4571L132.395 45.3038L132.723 35.8955ZM135.239 37.6224L135.164 39.7631L136.189 39.7989C137.101 39.8307 137.57 39.4748 137.595 38.7313L137.596 38.7133C137.609 38.3295 137.499 38.0615 137.264 37.9092C137.029 37.7569 136.66 37.672 136.156 37.6544L135.239 37.6224ZM135.107 41.3821L135.024 43.7746L136.265 43.818C137.297 43.854 137.826 43.4762 137.854 42.6847L137.854 42.6667C137.882 41.8752 137.422 41.4629 136.475 41.4298L135.107 41.3821ZM146.598 45.9979C145.135 45.9468 143.981 45.4802 143.135 44.5982C142.23 43.702 141.803 42.5164 141.854 41.0413L141.859 40.8974C141.911 39.4343 142.42 38.2634 143.387 37.3846C144.329 36.529 145.49 36.1252 146.869 36.1734C148.177 36.219 149.231 36.6341 150.032 37.4185C150.926 38.2902 151.345 39.5236 151.29 41.1187L151.264 41.8382L144.483 41.6014C144.491 42.3942 144.685 43.0133 145.066 43.4589C145.459 43.8929 146.015 44.1224 146.735 44.1475C147.862 44.1869 148.531 43.772 148.742 42.9028L151.206 42.9889C151.015 44.0028 150.52 44.772 149.721 45.2964C148.934 45.8093 147.894 46.0431 146.598 45.9979ZM148.784 40.1486C148.749 38.7425 148.09 38.0171 146.807 37.9723C146.219 37.9518 145.727 38.1207 145.33 38.4791C144.946 38.8259 144.694 39.3334 144.574 40.0016L148.784 40.1486ZM160.218 38.7108L157.429 38.6134L157.165 46.1688L154.575 46.0783L154.839 38.5229L152.051 38.4256L152.115 36.5727L160.282 36.8579L160.218 38.7108ZM164.575 45.473L161.129 36.8875L163.935 36.9855L166.022 42.7138L168.324 37.1387L170.825 37.226L165.293 49.6586L162.775 49.5706L164.575 45.473ZM175.778 47.0169C174.315 46.9658 173.16 46.4992 172.315 45.6172C171.409 44.721 170.982 43.5354 171.034 42.0603L171.039 41.9164C171.09 40.4533 171.599 39.2823 172.566 38.4036C173.509 37.5479 174.67 37.1442 176.049 37.1923C177.356 37.238 178.41 37.653 179.211 38.4375C180.105 39.3092 180.525 40.5426 180.469 42.1376L180.444 42.8572L173.662 42.6204C173.67 43.4131 173.865 44.0323 174.246 44.4779C174.639 44.9118 175.195 45.1414 175.915 45.1665C177.042 45.2059 177.711 44.791 177.921 43.9218L180.386 44.0079C180.194 45.0218 179.699 45.791 178.9 46.3154C178.114 46.8283 177.073 47.0621 175.778 47.0169ZM177.963 41.1676C177.928 39.7615 177.269 39.0361 175.986 38.9913C175.398 38.9707 174.906 39.1397 174.509 39.498C174.125 39.8448 173.873 40.3523 173.754 41.0206L177.963 41.1676ZM189.397 39.7297L186.609 39.6324L186.345 47.1878L183.754 47.0973L184.018 39.5419L181.23 39.4445L181.295 37.5917L189.462 37.8769L189.397 39.7297Z" fill="#262626"/>
</svg>
