<svg width="329" height="61" viewBox="0 0 329 61" fill="none" xmlns="http://www.w3.org/2000/svg">
<rect x="1.15997" y="8.94921" width="150" height="36" rx="5" transform="rotate(-3 1.15997 8.94921)" fill="white"/>
<rect x="1.15997" y="8.94921" width="150" height="36" rx="5" transform="rotate(-3 1.15997 8.94921)" stroke="#F2C94C" stroke-width="2"/>
<path d="M18.3964 26.2207L14.7659 32.269L11.6202 32.4338L15.9784 25.4822L11.1624 19.5702L14.1822 19.4119L18.3238 24.8366L18.029 19.2103L20.887 19.0605L21.1828 24.7048L24.7877 18.8561L27.7536 18.7007L23.5763 24.9759L28.6788 31.5398L25.4612 31.7085L21.2526 26.035L21.5606 31.9129L18.7025 32.0627L18.3964 26.2207ZM29.969 31.4722L29.4763 22.0711L32.0468 21.9364L32.3755 28.2098L35.6778 21.7461L38.2483 21.6114L38.7409 31.0125L36.1705 31.1472L35.8417 24.8738L32.5395 31.3375L29.969 31.4722ZM47.9927 23.462C48.0523 24.6004 47.4899 25.3328 46.3054 25.6593C47.7314 25.8129 48.4751 26.4768 48.5367 27.6512L48.5395 27.7052C48.5847 28.568 48.2506 29.3005 47.5371 29.9026C46.8237 30.5048 45.8678 30.8373 44.6694 30.9001C43.3752 30.9679 42.3532 30.7271 41.6034 30.1776C40.865 29.6154 40.3956 28.7989 40.1953 27.7279L42.5141 27.6064C42.6603 28.1034 42.8898 28.4699 43.2026 28.7058C43.5267 28.9292 43.9704 29.0261 44.5336 28.9966C45.4683 28.9476 45.9149 28.5276 45.8735 27.7367L45.8707 27.6828C45.8336 26.9758 45.3537 26.6464 44.431 26.6948L43.2087 26.7589L43.1239 25.1411L44.1844 25.0855C44.9993 25.0428 45.3892 24.6859 45.354 24.0148L45.3521 23.9789C45.3188 23.3437 44.8888 23.0478 44.0619 23.0912C43.223 23.1351 42.7171 23.5702 42.5441 24.3964L40.2253 24.5179C40.2773 23.4457 40.6606 22.6205 41.3753 22.0423C42.102 21.4635 42.9867 21.1468 44.0292 21.0921C45.1557 21.0331 46.0843 21.2128 46.8152 21.6311C47.5581 22.0488 47.95 22.6471 47.9908 23.426L47.9927 23.462ZM53.1771 30.4542C52.2663 30.5019 51.5177 30.3189 50.9313 29.905C50.2824 29.4463 49.9334 28.7496 49.8844 27.8149C49.8298 26.7724 50.2443 25.9696 51.1281 25.4065C51.9191 24.9085 53.0816 24.6192 54.6155 24.5388L55.676 24.4833L55.6562 24.1058C55.6248 23.5066 55.4881 23.0752 55.2459 22.8115C55.0158 22.5472 54.6131 22.4301 54.0379 22.4602C53.1151 22.5086 52.6051 22.9799 52.5078 23.8742L50.0452 24.0033C50.0618 22.945 50.4565 22.1072 51.2292 21.4899C51.9332 20.9363 52.8904 20.6278 54.1007 20.5643C55.3111 20.5009 56.2716 20.7149 56.9823 21.2064C57.7434 21.7433 58.156 22.6229 58.2201 23.8452L58.5413 29.9748L56.0068 30.1076L55.9475 28.9752C55.3588 29.8953 54.4353 30.3883 53.1771 30.4542ZM53.8549 28.5982C54.4421 28.5674 54.9195 28.3922 55.2873 28.0725C55.6551 27.7528 55.8255 27.3353 55.7985 26.82L55.757 26.0291L54.7504 26.0819C53.9595 26.1233 53.3656 26.2566 52.9689 26.4817C52.5841 26.7061 52.4043 27.058 52.4294 27.5374C52.469 28.2923 52.9441 28.6459 53.8549 28.5982ZM69.0337 29.6232C67.6196 29.6973 66.4476 29.3442 65.5174 28.5638C64.5495 27.7493 64.0263 26.5931 63.9478 25.0952L63.9402 24.9514C63.863 23.4774 64.2735 22.2542 65.1719 21.2819C66.0254 20.372 67.1472 19.8806 68.5373 19.8077C69.7477 19.7443 70.7444 19.9624 71.5277 20.4621C72.4231 21.0401 72.9641 21.961 73.1505 23.225L70.6879 23.354C70.4762 22.2957 69.8131 21.7957 68.6986 21.8541C68.0036 21.8905 67.4652 22.1651 67.0835 22.6778C66.7138 23.1898 66.5522 23.8892 66.5987 24.776L66.6062 24.9198C66.6552 25.8545 66.8903 26.5572 67.3115 27.0278C67.7441 27.4858 68.3259 27.6956 69.0568 27.6573C69.6081 27.6284 70.0553 27.4488 70.3985 27.1183C70.7536 26.7873 70.9458 26.3266 70.9749 25.7363L73.3297 25.6129C73.3187 26.779 72.9407 27.7061 72.1957 28.394C71.4059 29.1444 70.3519 29.5541 69.0337 29.6232ZM79.4479 27.0947C80.1789 27.0564 80.7289 26.7752 81.098 26.2512C81.4791 25.7265 81.6461 25.0148 81.599 24.116L81.5924 23.9902C81.5453 23.0915 81.3048 22.4011 80.871 21.9191C80.4485 21.4246 79.8718 21.1964 79.1408 21.2347C78.4218 21.2724 77.8717 21.5536 77.4907 22.0783C77.109 22.5909 76.9417 23.2967 76.9888 24.1954L76.9963 24.3392C77.0441 25.25 77.2788 25.9467 77.7007 26.4292C78.1225 26.9118 78.7049 27.1336 79.4479 27.0947ZM79.5335 29.0729C78.0955 29.1483 76.8982 28.7724 75.9416 27.9454C74.9491 27.1202 74.4148 25.9826 74.3388 24.5326L74.3313 24.3888C74.2553 22.9388 74.6668 21.7336 75.5657 20.7732C76.442 19.8381 77.5991 19.3328 79.0372 19.2575C80.4872 19.1815 81.6905 19.557 82.6471 20.3841C83.6295 21.2458 84.1581 22.3897 84.2328 23.8158L84.2404 23.9596C84.3164 25.4096 83.9049 26.6148 83.0059 27.5752C82.141 28.4977 80.9836 28.9969 79.5335 29.0729ZM85.6316 19.1282L89.73 18.9134C90.8325 18.8556 91.7054 19.0021 92.3486 19.3529C92.9912 19.6918 93.3333 20.2566 93.3747 21.0475L93.3766 21.0835C93.435 22.198 92.8726 22.9304 91.6893 23.2808C93.1525 23.4565 93.9149 24.1315 93.9764 25.3059L93.9773 25.3239C94.0244 26.2226 93.755 26.9277 93.1689 27.4391C92.5829 27.9504 91.6967 28.2372 90.5103 28.2994L86.1243 28.5293L85.6316 19.1282ZM88.2878 20.6292L88.4 22.7683L89.4245 22.7146C90.3353 22.6668 90.7712 22.2715 90.7323 21.5285L90.7313 21.5105C90.7112 21.127 90.5776 20.8697 90.3304 20.7384C90.0832 20.6072 89.7079 20.5548 89.2046 20.5812L88.2878 20.6292ZM88.4847 24.386L88.61 26.7768L89.8503 26.7118C90.8809 26.6577 91.3755 26.2353 91.334 25.4444L91.3331 25.4264C91.2916 24.6355 90.7976 24.2648 89.8509 24.3144L88.4847 24.386ZM100.334 27.9828C98.8722 28.0594 97.6815 27.6953 96.7622 26.8903C95.7822 26.0764 95.2536 24.9325 95.1764 23.4586L95.1688 23.3148C95.0922 21.8528 95.4974 20.6419 96.3844 19.6822C97.2487 18.7476 98.3699 18.2443 99.748 18.1721C101.054 18.1036 102.14 18.4252 103.007 19.1368C103.974 19.9273 104.499 21.1195 104.582 22.7133L104.62 23.4323L97.8432 23.7874C97.9206 24.5765 98.1684 25.1763 98.5864 25.587C99.0159 25.9851 99.5901 26.1653 100.309 26.1276C101.436 26.0686 102.066 25.5969 102.2 24.7127L104.662 24.5836C104.56 25.6104 104.134 26.4198 103.384 27.0119C102.645 27.5913 101.628 27.915 100.334 27.9828ZM102.002 21.9653C101.844 20.5676 101.124 19.9024 99.8422 19.9696C99.255 20.0004 98.7794 20.2115 98.4154 20.6031C98.0627 20.9821 97.8561 21.5096 97.7954 22.1857L102.002 21.9653ZM113.266 19.5364L110.48 19.6824L110.876 27.2321L108.288 27.3677L107.892 19.8181L105.106 19.9641L105.009 18.1127L113.169 17.685L113.266 19.5364ZM118.197 25.8931L114.015 17.6406L116.819 17.4937L119.398 23.0183L121.205 17.2638L123.704 17.1329L119.277 30.0002L116.761 30.1321L118.197 25.8931ZM129.491 26.4547C128.029 26.5314 126.839 26.1672 125.919 25.3622C124.939 24.5484 124.411 23.4045 124.334 21.9305L124.326 21.7867C124.249 20.3247 124.655 19.1138 125.542 18.1541C126.406 17.2196 127.527 16.7162 128.905 16.644C130.211 16.5755 131.298 16.8971 132.164 17.6087C133.131 18.3992 133.656 19.5914 133.74 21.1852L133.777 21.9042L127 22.2594C127.078 23.0484 127.326 23.6483 127.744 24.0589C128.173 24.457 128.747 24.6372 129.466 24.5995C130.593 24.5405 131.223 24.0689 131.357 23.1846L133.82 23.0556C133.717 24.0823 133.291 24.8918 132.541 25.4838C131.802 26.0633 130.786 26.3869 129.491 26.4547ZM131.159 20.4372C131.001 19.0396 130.282 18.3743 128.999 18.4415C128.412 18.4723 127.937 18.6835 127.573 19.0751C127.22 19.454 127.013 19.9816 126.953 20.6577L131.159 20.4372ZM142.424 18.0084L139.638 18.1544L140.033 25.704L137.445 25.8397L137.049 18.29L134.263 18.436L134.166 16.5846L142.327 16.1569L142.424 18.0084Z" fill="#262626"/>
<rect x="97.6722" y="18.3934" width="150" height="36" rx="5" transform="rotate(2 97.6722 18.3934)" fill="white"/>
<rect x="97.6722" y="18.3934" width="150" height="36" rx="5" transform="rotate(2 97.6722 18.3934)" stroke="#F2C94C" stroke-width="2"/>
<path d="M113.337 37.1016L109.193 42.8105L106.045 42.7006L110.992 36.1552L106.71 29.8459L109.732 29.9515L113.385 35.7165L113.582 30.0859L116.442 30.1858L116.245 35.8343L120.346 30.3221L123.314 30.4258L118.606 36.313L123.117 43.2967L119.897 43.1843L116.198 37.1655L115.993 43.0479L113.133 42.9481L113.337 37.1016ZM124.408 43.3418L124.736 33.9335L127.309 34.0234L127.089 40.3015L130.942 34.1503L133.515 34.2401L133.186 43.6484L130.614 43.5585L130.833 37.2803L126.98 43.4316L124.408 43.3418ZM143.061 36.9329C143.021 38.0722 142.397 38.7528 141.189 38.9748C142.596 39.2521 143.279 39.9783 143.238 41.1536L143.236 41.2076C143.206 42.0711 142.809 42.7716 142.046 43.3093C141.283 43.847 140.301 44.0949 139.102 44.0531C137.807 44.0078 136.81 43.6788 136.111 43.0661C135.424 42.4417 135.028 41.5874 134.921 40.503L137.242 40.584C137.344 41.0919 137.541 41.477 137.832 41.7393C138.135 41.9901 138.569 42.1253 139.133 42.145C140.068 42.1776 140.55 41.7982 140.577 41.0067L140.579 40.9527C140.604 40.2451 140.154 39.8752 139.231 39.843L138.008 39.8003L138.064 38.1813L139.126 38.2183C139.941 38.2468 140.361 37.9252 140.384 37.2537L140.385 37.2177C140.408 36.5821 140.005 36.2498 139.177 36.2209C138.338 36.1916 137.796 36.5809 137.552 37.3889L135.231 37.3078C135.376 36.2443 135.83 35.4556 136.592 34.9419C137.367 34.4286 138.276 34.1902 139.319 34.2266C140.446 34.266 141.356 34.5259 142.048 35.0063C142.751 35.4872 143.089 36.1174 143.062 36.8969L143.061 36.9329ZM147.616 44.3504C146.705 44.3185 145.975 44.0709 145.427 43.6075C144.82 43.094 144.533 42.3696 144.566 41.4342C144.603 40.3908 145.085 39.6272 146.015 39.1433C146.846 38.7161 148.03 38.5293 149.565 38.5829L150.626 38.6199L150.639 38.2422C150.66 37.6425 150.562 37.2008 150.343 36.917C150.137 36.6336 149.746 36.4819 149.17 36.4618C148.247 36.4296 147.698 36.8547 147.523 37.7371L145.058 37.651C145.167 36.5982 145.633 35.798 146.457 35.2504C147.207 34.7602 148.187 34.5363 149.398 34.5786C150.61 34.6209 151.548 34.9178 152.213 35.4694C152.924 36.0706 153.259 36.9828 153.216 38.2061L153.002 44.3403L150.465 44.2517L150.505 43.1184C149.838 43.9837 148.875 44.3943 147.616 44.3504ZM148.453 42.5605C149.041 42.581 149.532 42.4481 149.926 42.1617C150.32 41.8752 150.526 41.4742 150.544 40.9585L150.572 40.167L149.565 40.1318C148.773 40.1042 148.17 40.1852 147.755 40.3748C147.352 40.5649 147.142 40.8997 147.126 41.3794C147.099 42.135 147.542 42.5287 148.453 42.5605ZM163.485 44.9045C162.07 44.8551 160.933 44.4012 160.074 43.5427C159.181 42.6469 158.761 41.4495 158.813 39.9505L158.818 39.8065C158.87 38.3314 159.385 37.1487 160.365 36.2584C161.294 35.4263 162.455 35.0346 163.846 35.0831C165.057 35.1254 166.031 35.4296 166.768 35.9957C167.61 36.6494 168.068 37.614 168.144 38.8894L165.679 38.8034C165.561 37.7306 164.944 37.1747 163.828 37.1358C163.133 37.1115 162.572 37.3381 162.148 37.8155C161.735 38.2934 161.513 38.9761 161.482 39.8635L161.477 40.0074C161.444 40.9429 161.617 41.6634 161.995 42.1689C162.386 42.6628 162.948 42.9226 163.679 42.9481C164.231 42.9674 164.692 42.8274 165.063 42.5281C165.445 42.2293 165.677 41.7871 165.758 41.2016L168.114 41.2839C168.002 42.4447 167.544 43.3352 166.742 43.9556C165.89 44.6343 164.804 44.9506 163.485 44.9045ZM174.08 43.2933C174.811 43.3188 175.384 43.0867 175.797 42.5968C176.223 42.1074 176.451 41.4129 176.482 40.5135L176.487 40.3875C176.518 39.4881 176.339 38.7794 175.949 38.2615C175.571 37.7319 175.016 37.4544 174.285 37.4289C173.565 37.4037 172.993 37.6359 172.567 38.1254C172.142 38.6028 171.914 39.2913 171.883 40.1907L171.878 40.3346C171.846 41.2461 172.019 41.9606 172.397 42.4781C172.775 42.9956 173.336 43.2673 174.08 43.2933ZM173.993 45.2715C172.554 45.2212 171.394 44.7424 170.513 43.8351C169.596 42.9266 169.163 41.7468 169.214 40.2956L169.219 40.1517C169.269 38.7006 169.784 37.5359 170.763 36.6575C171.718 35.8023 172.915 35.3998 174.354 35.4501C175.805 35.5008 176.971 35.9797 177.852 36.887C178.755 37.8311 179.182 39.0168 179.132 40.4439L179.127 40.5878C179.077 42.0389 178.562 43.2037 177.582 44.082C176.64 44.9257 175.444 45.3221 173.993 45.2715ZM180.934 35.896L185.036 36.0392C186.139 36.0778 186.996 36.2998 187.606 36.7053C188.217 37.0989 188.508 37.6914 188.481 38.483L188.479 38.5189C188.441 39.6342 187.816 40.3149 186.607 40.5608C188.049 40.8633 188.75 41.6022 188.709 42.7775L188.708 42.7955C188.677 43.695 188.347 44.3739 187.719 44.8322C187.09 45.2906 186.182 45.499 184.995 45.4576L180.606 45.3043L180.934 35.896ZM183.45 37.6228L183.375 39.7635L184.4 39.7993C185.312 39.8312 185.78 39.4753 185.806 38.7318L185.807 38.7138C185.82 38.33 185.71 38.062 185.475 37.9097C185.24 37.7574 184.871 37.6725 184.367 37.6549L183.45 37.6228ZM183.318 41.3826L183.235 43.7751L184.476 43.8184C185.507 43.8545 186.037 43.4767 186.065 42.6852L186.065 42.6672C186.093 41.8757 185.633 41.4634 184.686 41.4303L183.318 41.3826ZM194.809 45.9984C193.346 45.9473 192.192 45.4807 191.346 44.5987C190.441 43.7025 190.014 42.5169 190.065 41.0418L190.07 40.8979C190.122 39.4348 190.631 38.2639 191.598 37.3851C192.54 36.5294 193.701 36.1257 195.08 36.1739C196.388 36.2195 197.442 36.6346 198.243 37.419C199.137 38.2907 199.556 39.5241 199.5 41.1191L199.475 41.8387L192.693 41.6019C192.702 42.3946 192.896 43.0138 193.277 43.4594C193.67 43.8934 194.226 44.1229 194.946 44.148C196.073 44.1874 196.742 43.7725 196.953 42.9033L199.417 42.9894C199.226 44.0033 198.73 44.7725 197.932 45.2969C197.145 45.8098 196.105 46.0436 194.809 45.9984ZM196.995 40.1491C196.96 38.743 196.301 38.0176 195.018 37.9728C194.43 37.9523 193.938 38.1212 193.541 38.4795C193.157 38.8263 192.905 39.3339 192.785 40.0021L196.995 40.1491ZM208.428 38.7113L205.64 38.6139L205.376 46.1693L202.786 46.0788L203.05 38.5234L200.261 38.4261L200.326 36.5732L208.493 36.8584L208.428 38.7113ZM212.786 45.4735L209.34 36.8879L212.146 36.9859L214.233 42.7143L216.535 37.1392L219.036 37.2265L213.504 49.6591L210.986 49.5711L212.786 45.4735ZM223.989 47.0174C222.526 46.9663 221.371 46.4997 220.526 45.6176C219.62 44.7215 219.193 43.5359 219.245 42.0608L219.25 41.9169C219.301 40.4538 219.81 39.2828 220.777 38.404C221.72 37.5484 222.881 37.1447 224.26 37.1928C225.567 37.2385 226.621 37.6535 227.422 38.438C228.316 39.3097 228.736 40.5431 228.68 42.1381L228.655 42.8577L221.873 42.6208C221.881 43.4136 222.076 44.0328 222.456 44.4783C222.85 44.9123 223.406 45.1419 224.125 45.167C225.253 45.2064 225.922 44.7915 226.132 43.9223L228.597 44.0083C228.405 45.0223 227.91 45.7915 227.111 46.3159C226.325 46.8288 225.284 47.0626 223.989 47.0174ZM226.174 41.1681C226.139 39.762 225.48 39.0366 224.197 38.9917C223.609 38.9712 223.117 39.1401 222.72 39.4985C222.336 39.8453 222.084 40.3528 221.965 41.0211L226.174 41.1681ZM237.608 39.7302L234.82 39.6329L234.556 47.1883L231.965 47.0978L232.229 39.5424L229.441 39.445L229.506 37.5922L237.673 37.8774L237.608 39.7302Z" fill="#262626"/>
<rect x="176.694" y="6.38137" width="150" height="36" rx="5" transform="rotate(-1 176.694 6.38137)" fill="white"/>
<rect x="176.694" y="6.38137" width="150" height="36" rx="5" transform="rotate(-1 176.694 6.38137)" stroke="#F2C94C" stroke-width="2"/>
<path d="M193.318 24.2441L189.478 30.162L186.329 30.217L190.927 23.4217L186.32 17.3452L189.344 17.2924L193.293 22.8583L193.195 17.2252L196.057 17.1752L196.155 22.8263L199.962 17.107L202.932 17.0552L198.538 23.1808L203.408 29.9188L200.187 29.9751L196.179 24.1581L196.281 30.0432L193.42 30.0932L193.318 24.2441ZM204.7 29.8963L204.536 20.4837L207.109 20.4388L207.219 26.7199L210.745 20.3754L213.318 20.3304L213.483 29.743L210.909 29.7879L210.799 23.5069L207.274 29.8514L204.7 29.8963ZM222.992 22.5199C223.012 23.6598 222.424 24.3721 221.229 24.657C222.649 24.8603 223.369 25.5498 223.39 26.7256L223.391 26.7796C223.406 27.6435 223.046 28.3639 222.312 28.9408C221.578 29.5177 220.611 29.8166 219.411 29.8375C218.116 29.8602 217.103 29.5838 216.372 29.0085C215.654 28.4209 215.213 27.5885 215.051 26.5111L217.372 26.4706C217.501 26.9724 217.718 27.3467 218.022 27.5934C218.338 27.828 218.778 27.9403 219.342 27.9305C220.278 27.9141 220.739 27.51 220.725 26.7181L220.724 26.6641C220.712 25.9563 220.244 25.6104 219.32 25.6265L218.096 25.6479L218.068 24.0281L219.13 24.0096C219.945 23.9953 220.348 23.6523 220.336 22.9804L220.335 22.9444C220.324 22.3085 219.905 21.9977 219.077 22.0122C218.237 22.0268 217.716 22.444 217.514 23.2636L215.193 23.3042C215.282 22.2344 215.694 21.4231 216.428 20.8702C217.175 20.3171 218.07 20.0315 219.114 20.0132C220.242 19.9936 221.164 20.2055 221.879 20.6491C222.607 21.0924 222.978 21.7041 222.992 22.4839L222.992 22.5199ZM227.929 29.6889C227.018 29.7048 226.276 29.4957 225.704 29.0616C225.072 28.5806 224.747 27.8721 224.731 26.9363C224.713 25.8924 225.155 25.1046 226.058 24.5727C226.866 24.1026 228.038 23.8541 229.573 23.8273L230.635 23.8087L230.629 23.4308C230.618 22.8309 230.497 22.3949 230.264 22.123C230.043 21.8508 229.645 21.7197 229.069 21.7298C228.145 21.7459 227.619 22.1991 227.49 23.0895L225.025 23.1326C225.078 22.0755 225.502 21.2519 226.296 20.662C227.019 20.1333 227.986 19.8584 229.198 19.8372C230.409 19.8161 231.362 20.0635 232.055 20.5795C232.797 21.1426 233.179 22.0361 233.2 23.2599L233.307 29.397L230.77 29.4413L230.75 28.3074C230.129 29.2064 229.189 29.6669 227.929 29.6889ZM228.672 27.8576C229.259 27.8474 229.743 27.6889 230.121 27.3823C230.5 27.0756 230.685 26.6643 230.676 26.1484L230.662 25.3565L229.654 25.3741C228.862 25.3879 228.264 25.5004 227.86 25.7115C227.468 25.9223 227.276 26.2677 227.284 26.7477C227.297 27.5036 227.76 27.8735 228.672 27.8576ZM243.805 29.4117C242.39 29.4365 241.231 29.0426 240.328 28.2302C239.389 27.3825 238.907 26.2087 238.881 24.709L238.878 24.565C238.852 23.0892 239.305 21.8811 240.237 20.9407C241.122 20.0612 242.26 19.6092 243.652 19.5849C244.864 19.5638 245.852 19.8166 246.618 20.3433C247.492 20.9521 248.001 21.8914 248.143 23.1611L245.677 23.2041C245.503 22.139 244.857 21.6162 243.742 21.6357C243.046 21.6478 242.498 21.9034 242.099 22.4025C241.711 22.9013 241.526 23.5946 241.541 24.4825L241.544 24.6265C241.56 25.5623 241.77 26.2728 242.175 26.7578C242.591 27.2306 243.165 27.4606 243.897 27.4478C244.449 27.4382 244.902 27.2743 245.257 26.956C245.623 26.6376 245.831 26.1839 245.881 25.5949L248.239 25.5538C248.187 26.7189 247.777 27.6322 247.008 28.2937C246.193 29.016 245.125 29.3887 243.805 29.4117ZM254.301 27.2482C255.033 27.2355 255.593 26.9737 255.98 26.4628C256.379 25.9518 256.571 25.2463 256.555 24.3465L256.553 24.2205C256.537 23.3206 256.321 22.6223 255.904 22.1255C255.499 21.6165 254.931 21.3683 254.199 21.3811C253.479 21.3937 252.92 21.6555 252.521 22.1665C252.121 22.6656 251.929 23.365 251.945 24.2649L251.948 24.4089C251.963 25.3207 252.174 26.0252 252.579 26.5222C252.983 27.0192 253.558 27.2612 254.301 27.2482ZM254.318 29.2282C252.878 29.2534 251.695 28.836 250.768 27.976C249.804 27.1167 249.31 25.9611 249.285 24.5094L249.282 24.3654C249.257 22.9136 249.71 21.7235 250.642 20.7951C251.551 19.8911 252.725 19.4266 254.165 19.4014C255.616 19.3761 256.806 19.7934 257.733 20.6533C258.685 21.5489 259.173 22.7105 259.198 24.1383L259.2 24.2823C259.226 25.7341 258.773 26.9242 257.841 27.8526C256.944 28.7443 255.77 29.2029 254.318 29.2282ZM260.759 19.5023L264.863 19.4307C265.967 19.4115 266.834 19.5883 267.465 19.9614C268.095 20.3224 268.417 20.8989 268.431 21.6908L268.431 21.7268C268.451 22.8426 267.863 23.555 266.669 23.8639C268.125 24.0905 268.863 24.7917 268.884 25.9675L268.884 25.9855C268.9 26.8854 268.606 27.5806 268.002 28.0712C267.399 28.5619 266.503 28.8175 265.315 28.8383L260.924 28.9149L260.759 19.5023ZM263.362 21.0952L263.399 23.2368L264.425 23.2189C265.337 23.203 265.786 22.8231 265.773 22.0792L265.773 22.0612C265.766 21.6773 265.642 21.4154 265.399 21.2756C265.157 21.1359 264.783 21.0704 264.28 21.0791L263.362 21.0952ZM263.427 24.8566L263.469 27.2502L264.711 27.2286C265.743 27.2105 266.252 26.8056 266.238 26.0137L266.238 25.9957C266.224 25.2038 265.743 24.8162 264.795 24.8327L263.427 24.8566ZM275.144 28.8647C273.68 28.8903 272.503 28.4848 271.612 27.6482C270.661 26.8006 270.173 25.639 270.147 24.1632L270.145 24.0192C270.119 22.5555 270.566 21.3595 271.486 20.4313C272.383 19.5275 273.521 19.0636 274.901 19.0395C276.208 19.0166 277.283 19.376 278.124 20.1174C279.062 20.9411 279.546 22.1509 279.573 23.7466L279.586 24.4665L272.801 24.585C272.851 25.3762 273.078 25.9844 273.481 26.4094C273.896 26.8222 274.464 27.0223 275.184 27.0097C276.312 26.9901 276.958 26.5407 277.123 25.6617L279.588 25.6187C279.45 26.6412 278.996 27.4353 278.225 28.0008C277.467 28.5541 276.44 28.8421 275.144 28.8647ZM277.02 22.9091C276.912 21.5067 276.216 20.8168 274.932 20.8392C274.344 20.8495 273.861 21.0439 273.484 21.4226C273.118 21.789 272.893 22.309 272.809 22.9826L277.02 22.9091ZM288.363 20.8748L285.574 20.9235L285.706 28.4823L283.114 28.5276L282.982 20.9687L280.192 21.0174L280.16 19.1637L288.331 19.0211L288.363 20.8748ZM293.069 27.3997L289.178 19.0063L291.985 18.9573L294.369 24.5685L296.376 18.8806L298.878 18.837L294.005 31.542L291.485 31.5859L293.069 27.3997ZM304.337 28.3552C302.873 28.3807 301.696 27.9752 300.805 27.1386C299.854 26.2911 299.366 25.1294 299.34 23.6537L299.338 23.5097C299.312 22.0459 299.759 20.8499 300.679 19.9217C301.576 19.0179 302.714 18.554 304.093 18.5299C305.401 18.5071 306.476 18.8664 307.317 19.6078C308.255 20.4316 308.738 21.6413 308.766 23.2371L308.779 23.957L301.994 24.0754C302.044 24.8667 302.27 25.4748 302.674 25.8998C303.089 26.3126 303.657 26.5128 304.377 26.5002C305.504 26.4805 306.151 26.0312 306.315 25.1521L308.781 25.1091C308.643 26.1317 308.189 26.9257 307.418 27.4913C306.66 28.0446 305.633 28.3325 304.337 28.3552ZM306.213 22.3995C306.105 20.9972 305.409 20.3072 304.125 20.3296C303.537 20.3399 303.054 20.5344 302.677 20.913C302.311 21.2794 302.086 21.7994 302.002 22.473L306.213 22.3995ZM317.556 20.3652L314.766 20.4139L314.898 27.9728L312.307 28.018L312.175 20.4592L309.385 20.5079L309.353 18.6541L317.524 18.5115L317.556 20.3652Z" fill="#262626"/>
</svg>
