<svg width="337" height="61" viewBox="0 0 337 61" fill="none" xmlns="http://www.w3.org/2000/svg">
<rect x="1.15997" y="9.36792" width="158" height="36" rx="5" transform="rotate(-3 1.15997 9.36792)" fill="white"/>
<rect x="1.15997" y="9.36792" width="158" height="36" rx="5" transform="rotate(-3 1.15997 9.36792)" stroke="#DF5B35" stroke-width="2"/>
<path d="M19.9788 32.4147L19.6962 27.0221C19.4659 27.2145 19.2101 27.3781 18.9288 27.513C18.2734 27.8477 17.5023 28.0383 16.6156 28.0848C13.6197 28.2418 12.0332 26.6307 11.8561 23.2513L11.6837 19.9618L14.5957 19.8092L14.7709 23.1526C14.8205 24.0993 15.0364 24.7789 15.4185 25.1915C15.8006 25.6041 16.3691 25.7906 17.1241 25.751C17.8551 25.7127 18.4764 25.5299 18.988 25.2027C19.2087 25.059 19.4046 24.8985 19.5756 24.7213L19.3052 19.5624L22.2172 19.4098L22.8908 32.2621L19.9788 32.4147ZM25.44 32.1285L24.9474 22.7274L27.5178 22.5927L27.8466 28.8661L31.1488 22.4024L33.7193 22.2677L34.212 31.6688L31.6415 31.8035L31.3128 25.5301L28.0105 31.9938L25.44 32.1285ZM43.4014 23.6168L40.6152 23.7629L41.0109 31.3125L38.4224 31.4481L38.0268 23.8985L35.2406 24.0445L35.1436 22.1931L43.3044 21.7654L43.4014 23.6168ZM47.8231 31.1538C46.9123 31.2015 46.1637 31.0184 45.5773 30.6045C44.9284 30.1459 44.5794 29.4492 44.5305 28.5145C44.4758 27.4719 44.8904 26.6691 45.7741 26.1061C46.5651 25.608 47.7276 25.3188 49.2615 25.2384L50.322 25.1828L50.3022 24.8053C50.2708 24.2061 50.1341 23.7747 49.8919 23.511C49.6618 23.2467 49.2591 23.1296 48.6839 23.1597C47.7612 23.2081 47.2511 23.6794 47.1538 24.5738L44.6912 24.7028C44.7078 23.6445 45.1025 22.8067 45.8753 22.1894C46.5793 21.6358 47.5364 21.3273 48.7468 21.2639C49.9571 21.2004 50.9176 21.4145 51.6283 21.9059C52.3895 22.4428 52.8021 23.3224 52.8661 24.5448L53.1874 30.6744L50.6528 30.8072L50.5935 29.6747C50.0048 30.5948 49.0814 31.0878 47.8231 31.1538ZM48.5009 29.2977C49.0881 29.267 49.5656 29.0917 49.9333 28.772C50.3011 28.4524 50.4715 28.0349 50.4445 27.5196L50.403 26.7287L49.3964 26.7814C48.6055 26.8229 48.0117 26.9561 47.6149 27.1812C47.2301 27.4057 47.0503 27.7575 47.0754 28.2369C47.115 28.9919 47.5901 29.3455 48.5009 29.2977ZM61.0069 18.7648C60.5401 19.2579 59.8992 19.5258 59.0844 19.5685C58.2695 19.6112 57.6101 19.4114 57.1063 18.9692C56.6018 18.515 56.2986 17.888 56.1966 17.0882L58.066 16.9903C58.1756 17.7055 58.488 18.0496 59.0033 18.0226C59.5666 17.9931 59.8713 17.6166 59.9175 16.8932L61.751 16.7971C61.7331 17.6032 61.4851 18.2591 61.0069 18.7648ZM55.3346 30.5618L54.8419 21.1607L57.4123 21.026L57.7411 27.2994L61.0434 20.8357L63.6138 20.701L64.1065 30.1021L61.5361 30.2368L61.2073 23.9634L57.905 30.4271L55.3346 30.5618ZM73.2959 22.0501L70.5098 22.1961L70.9054 29.7458L68.317 29.8814L67.9213 22.3318L65.1351 22.4778L65.0381 20.6264L73.1989 20.1987L73.2959 22.0501ZM79.3396 29.502C77.8776 29.5787 76.6869 29.2145 75.7675 28.4095C74.7876 27.5957 74.259 26.4518 74.1818 24.9778L74.1742 24.834C74.0976 23.372 74.5028 22.1611 75.3898 21.2014C76.254 20.2669 77.3752 19.7635 78.7533 19.6913C80.0596 19.6228 81.1459 19.9444 82.0123 20.656C82.979 21.4465 83.5041 22.6387 83.5876 24.2325L83.6253 24.9515L76.8486 25.3067C76.926 26.0957 77.1738 26.6955 77.5918 27.1062C78.0212 27.5043 78.5955 27.6845 79.3145 27.6468C80.4409 27.5878 81.0711 27.1162 81.205 26.2319L83.6676 26.1029C83.5652 27.1296 83.139 27.9391 82.389 28.5311C81.6503 29.1106 80.6338 29.4342 79.3396 29.502ZM81.007 23.4845C80.8496 22.0869 80.1298 21.4216 78.8476 21.4888C78.2604 21.5196 77.7848 21.7308 77.4208 22.1224C77.0681 22.5013 76.8614 23.0289 76.8007 23.705L81.007 23.4845ZM88.9494 19.3732L93.0477 19.1584C94.1502 19.1007 95.0231 19.2472 95.6663 19.598C96.3089 19.9368 96.651 20.5017 96.6924 21.2926L96.6943 21.3286C96.7527 22.443 96.1903 23.1755 95.007 23.5259C96.4702 23.7015 97.2326 24.3766 97.2941 25.551L97.2951 25.5689C97.3422 26.4677 97.0727 27.1728 96.4867 27.6841C95.9006 28.1955 95.0144 28.4823 93.828 28.5445L89.4421 28.7743L88.9494 19.3732ZM91.6056 20.8743L91.7177 23.0133L92.7423 22.9596C93.653 22.9119 94.0889 22.5166 94.05 21.7736L94.049 21.7556C94.0289 21.3721 93.8953 21.1148 93.6481 20.9835C93.4009 20.8523 93.0256 20.7998 92.5223 20.8262L91.6056 20.8743ZM91.8024 24.6311L91.9277 27.0218L93.168 26.9568C94.1986 26.9028 94.6932 26.4804 94.6517 25.6894L94.6508 25.6715C94.6093 24.8806 94.1153 24.5099 93.1686 24.5595L91.8024 24.6311ZM109.028 21.8898L105.397 27.9381L102.252 28.103L106.61 21.1514L101.794 15.2393L104.814 15.0811L108.955 20.5057L108.66 14.8795L111.519 14.7297L111.814 20.3739L115.419 14.5253L118.385 14.3698L114.208 20.645L119.31 27.209L116.093 27.3776L111.884 21.7041L112.192 27.582L109.334 27.7318L109.028 21.8898ZM120.6 27.1414L120.108 17.7403L122.678 17.6056L123.007 23.879L126.309 17.4153L128.88 17.2806L129.372 26.6817L126.802 26.8164L126.473 20.543L123.171 27.0067L120.6 27.1414ZM138.624 19.1311C138.684 20.2696 138.121 21.002 136.937 21.3284C138.363 21.482 139.107 22.146 139.168 23.3204L139.171 23.3743C139.216 24.2371 138.882 24.9696 138.169 25.5718C137.455 26.1739 136.499 26.5064 135.301 26.5692C134.007 26.6371 132.985 26.3962 132.235 25.8467C131.496 25.2846 131.027 24.468 130.827 23.397L133.146 23.2755C133.292 23.7726 133.521 24.139 133.834 24.375C134.158 24.5983 134.602 24.6953 135.165 24.6657C136.1 24.6167 136.546 24.1968 136.505 23.4059L136.502 23.352C136.465 22.6449 135.985 22.3156 135.062 22.364L133.84 22.428L133.755 20.8102L134.816 20.7546C135.631 20.7119 136.021 20.3551 135.985 19.684L135.984 19.648C135.95 19.0129 135.52 18.717 134.693 18.7603C133.855 18.8043 133.349 19.2394 133.176 20.0656L130.857 20.1871C130.909 19.1149 131.292 18.2897 132.007 17.7115C132.733 17.1327 133.618 16.8159 134.661 16.7613C135.787 16.7023 136.716 16.8819 137.447 17.3002C138.19 17.7179 138.581 18.3162 138.622 19.0952L138.624 19.1311ZM145.518 26.0338C144.056 26.1104 142.866 25.7462 141.946 24.9412C140.966 24.1274 140.438 22.9835 140.36 21.5095L140.353 21.3657C140.276 19.9037 140.681 18.6928 141.568 17.7331C142.433 16.7986 143.554 16.2952 144.932 16.223C146.238 16.1545 147.325 16.4761 148.191 17.1878C149.158 17.9783 149.683 19.1704 149.766 20.7642L149.804 21.4832L143.027 21.8384C143.105 22.6274 143.352 23.2273 143.771 23.638C144.2 24.036 144.774 24.2162 145.493 24.1785C146.62 24.1195 147.25 23.6479 147.384 22.7637L149.846 22.6346C149.744 23.6614 149.318 24.4708 148.568 25.0628C147.829 25.6423 146.813 25.9659 145.518 26.0338ZM147.186 20.0163C147.028 18.6186 146.309 17.9533 145.026 18.0205C144.439 18.0513 143.963 18.2625 143.599 18.6541C143.247 19.0331 143.04 19.5606 142.979 20.2367L147.186 20.0163Z" fill="#262626"/>
<rect x="97.6722" y="18.3932" width="158" height="36" rx="5" transform="rotate(2 97.6722 18.3932)" fill="white"/>
<rect x="97.6722" y="18.3932" width="158" height="36" rx="5" transform="rotate(2 97.6722 18.3932)" stroke="#DF5B35" stroke-width="2"/>
<path d="M114.41 42.9924L114.598 37.5957C114.352 37.7672 114.083 37.9079 113.791 38.0178C113.109 38.2942 112.324 38.4168 111.437 38.3859C108.439 38.2812 106.999 36.5378 107.117 33.1559L107.232 29.8639L110.146 29.9657L110.029 33.3116C109.996 34.2591 110.152 34.9549 110.496 35.3992C110.841 35.8435 111.391 36.0789 112.147 36.1052C112.878 36.1308 113.513 36.0029 114.051 35.7215C114.284 35.5975 114.493 35.4547 114.679 35.2931L114.859 30.1303L117.773 30.232L117.324 43.0942L114.41 42.9924ZM119.875 43.1833L120.204 33.775L122.776 33.8648L122.557 40.143L126.41 33.9917L128.982 34.0816L128.654 43.4898L126.082 43.4L126.301 37.1218L122.448 43.2731L119.875 43.1833ZM138.51 36.2694L135.722 36.172L135.458 43.7274L132.868 43.637L133.131 36.0816L130.343 35.9842L130.408 34.1313L138.575 34.4165L138.51 36.2694ZM142.258 44.163C141.347 44.1312 140.617 43.8836 140.069 43.4202C139.462 42.9067 139.175 42.1822 139.208 41.2468C139.244 40.2034 139.727 39.4398 140.657 38.956C141.488 38.5287 142.672 38.3419 144.207 38.3955L145.268 38.4326L145.281 38.0548C145.302 37.4552 145.203 37.0135 144.985 36.7297C144.779 36.4463 144.388 36.2946 143.812 36.2745C142.889 36.2422 142.34 36.6673 142.165 37.5497L139.7 37.4637C139.809 36.4108 140.275 35.6106 141.099 35.063C141.849 34.5729 142.829 34.349 144.04 34.3913C145.252 34.4336 146.19 34.7305 146.855 35.282C147.566 35.8832 147.901 36.7955 147.858 38.0187L147.644 44.153L145.107 44.0644L145.147 42.9311C144.48 43.7964 143.517 44.207 142.258 44.163ZM143.095 42.3731C143.683 42.3937 144.174 42.2607 144.568 41.9743C144.962 41.6879 145.168 41.2868 145.186 40.7711L145.214 39.9796L144.207 39.9445C143.415 39.9168 142.812 39.9978 142.397 40.1874C141.994 40.3775 141.784 40.7124 141.768 41.1921C141.741 41.9476 142.184 42.3413 143.095 42.3731ZM156.472 32.9702C155.964 33.4208 155.302 33.6318 154.486 33.6033C153.671 33.5749 153.031 33.3184 152.568 32.8339C152.105 32.3375 151.858 31.6864 151.826 30.8808L153.697 30.9462C153.743 31.6682 154.025 32.0383 154.54 32.0563C155.104 32.076 155.44 31.7275 155.549 31.0109L157.384 31.0749C157.296 31.8764 156.992 32.5081 156.472 32.9702ZM149.793 44.228L150.121 34.8197L152.694 34.9096L152.474 41.1878L156.327 35.0365L158.9 35.1263L158.571 44.5346L155.999 44.4447L156.218 38.1666L152.365 44.3178L149.793 44.228ZM168.427 37.3141L165.639 37.2168L165.375 44.7722L162.785 44.6817L163.049 37.1263L160.26 37.0289L160.325 35.1761L168.492 35.4613L168.427 37.3141ZM173.799 45.2644C172.336 45.2133 171.181 44.7468 170.335 43.8647C169.43 42.9686 169.003 41.783 169.055 40.3079L169.06 40.164C169.111 38.7008 169.62 37.5299 170.587 36.6511C171.53 35.7955 172.691 35.3918 174.07 35.4399C175.377 35.4856 176.431 35.9006 177.232 36.685C178.126 37.5568 178.546 38.7902 178.49 40.3852L178.465 41.1047L171.683 40.8679C171.691 41.6607 171.886 42.2799 172.266 42.7254C172.659 43.1594 173.216 43.389 173.935 43.4141C175.063 43.4535 175.732 43.0385 175.942 42.1694L178.406 42.2554C178.215 43.2694 177.72 44.0385 176.921 44.563C176.135 45.0759 175.094 45.3097 173.799 45.2644ZM175.984 39.4152C175.949 38.0091 175.29 37.2836 174.007 37.2388C173.419 37.2183 172.927 37.3872 172.53 37.7456C172.146 38.0924 171.894 38.5999 171.775 39.2682L175.984 39.4152ZM184.255 36.0117L188.356 36.1549C189.459 36.1935 190.316 36.4155 190.926 36.821C191.537 37.2146 191.829 37.8071 191.801 38.5987L191.8 38.6346C191.761 39.75 191.137 40.4306 189.927 40.6765C191.37 40.979 192.07 41.718 192.029 42.8932L192.029 42.9112C191.997 43.8107 191.667 44.4896 191.039 44.9479C190.411 45.4063 189.503 45.6147 188.315 45.5733L183.926 45.42L184.255 36.0117ZM186.77 37.7385L186.695 39.8792L187.721 39.915C188.632 39.9469 189.101 39.591 189.127 38.8475L189.127 38.8295C189.141 38.4457 189.03 38.1777 188.795 38.0254C188.56 37.8731 188.191 37.7882 187.687 37.7706L186.77 37.7385ZM186.639 41.4983L186.555 43.8908L187.796 43.9341C188.828 43.9702 189.357 43.5924 189.385 42.8009L189.385 42.7829C189.413 41.9914 188.953 41.5791 188.006 41.546L186.639 41.4983ZM204.037 40.2687L199.894 45.9776L196.746 45.8676L201.693 39.3223L197.411 33.013L200.433 33.1186L204.086 38.8836L204.282 33.253L207.143 33.3529L206.945 39.0014L211.046 33.4892L214.014 33.5928L209.306 39.4801L213.817 46.4638L210.597 46.3514L206.899 40.3326L206.693 46.215L203.833 46.1152L204.037 40.2687ZM215.108 46.5089L215.437 37.1006L218.009 37.1905L217.79 43.4686L221.643 37.3173L224.215 37.4072L223.887 46.8154L221.314 46.7256L221.534 40.4474L217.681 46.5987L215.108 46.5089ZM233.762 40.1C233.722 41.2393 233.098 41.9199 231.889 42.1419C233.296 42.4191 233.979 43.1454 233.938 44.3207L233.936 44.3747C233.906 45.2382 233.51 45.9387 232.746 46.4764C231.983 47.0141 231.002 47.262 229.803 47.2201C228.507 47.1749 227.51 46.8459 226.811 46.2331C226.125 45.6088 225.728 44.7544 225.622 43.6701L227.943 43.7511C228.045 44.259 228.242 44.6441 228.533 44.9064C228.836 45.1572 229.27 45.2924 229.833 45.312C230.769 45.3447 231.25 44.9653 231.278 44.1738L231.28 44.1198C231.304 43.4122 230.855 43.0423 229.932 43.0101L228.708 42.9674L228.765 41.3484L229.826 41.3854C230.642 41.4139 231.061 41.0923 231.085 40.4207L231.086 40.3848C231.108 39.7492 230.705 39.4169 229.878 39.388C229.039 39.3587 228.497 39.748 228.252 40.556L225.932 40.4749C226.077 39.4114 226.531 38.6227 227.293 38.109C228.067 37.5957 228.976 37.3573 230.02 37.3937C231.147 37.4331 232.056 37.693 232.748 38.1734C233.452 38.6543 233.79 39.2845 233.763 40.064L233.762 40.1ZM240.028 47.5772C238.565 47.5261 237.41 47.0596 236.565 46.1775C235.659 45.2814 235.232 44.0957 235.284 42.6206L235.289 42.4767C235.34 41.0136 235.849 39.8427 236.816 38.9639C237.759 38.1083 238.92 37.7045 240.299 37.7527C241.606 37.7983 242.66 38.2134 243.461 38.9978C244.355 39.8696 244.775 41.1029 244.719 42.698L244.694 43.4175L237.912 43.1807C237.92 43.9735 238.115 44.5926 238.496 45.0382C238.889 45.4722 239.445 45.7017 240.164 45.7269C241.292 45.7662 241.961 45.3513 242.171 44.4821L244.636 44.5682C244.444 45.5821 243.949 46.3513 243.15 46.8758C242.364 47.3886 241.323 47.6224 240.028 47.5772ZM242.213 41.7279C242.178 40.3218 241.519 39.5964 240.236 39.5516C239.648 39.5311 239.156 39.7 238.759 40.0584C238.375 40.4052 238.123 40.9127 238.004 41.5809L242.213 41.7279Z" fill="#262626"/>
<rect x="176.694" y="6.52078" width="158" height="36" rx="5" transform="rotate(-1 176.694 6.52078)" fill="white"/>
<rect x="176.694" y="6.52078" width="158" height="36" rx="5" transform="rotate(-1 176.694 6.52078)" stroke="#DF5B35" stroke-width="2"/>
<path d="M194.698 30.2103L194.603 24.8111C194.366 24.9953 194.105 25.1499 193.819 25.2749C193.153 25.5866 192.375 25.7501 191.487 25.7656C188.488 25.818 186.959 24.1524 186.9 20.769L186.842 17.4755L189.758 17.4246L189.816 20.7721C189.833 21.7199 190.025 22.4067 190.392 22.8323C190.76 23.258 191.321 23.4642 192.077 23.451C192.809 23.4382 193.436 23.2773 193.959 22.9681C194.185 22.8321 194.386 22.6786 194.563 22.5075L194.473 17.3423L197.388 17.2914L197.613 30.1594L194.698 30.2103ZM200.165 30.1149L200.001 20.7023L202.575 20.6574L202.684 26.9384L206.21 20.5939L208.784 20.549L208.948 29.9616L206.375 30.0065L206.265 23.7254L202.739 30.0699L200.165 30.1149ZM218.413 22.2352L215.623 22.2839L215.755 29.8427L213.164 29.888L213.032 22.3291L210.242 22.3778L210.21 20.5241L218.381 20.3815L218.413 22.2352ZM222.569 29.9218C221.657 29.9377 220.915 29.7287 220.344 29.2946C219.711 28.8135 219.387 28.1051 219.37 27.1692C219.352 26.1254 219.794 25.3376 220.697 24.8057C221.505 24.3355 222.677 24.0871 224.213 24.0602L225.275 24.0417L225.268 23.6638C225.258 23.0639 225.136 22.6279 224.903 22.3559C224.682 22.0838 224.284 21.9527 223.708 21.9627C222.784 21.9789 222.258 22.4321 222.13 23.3225L219.664 23.3655C219.718 22.3084 220.141 21.4849 220.935 20.895C221.658 20.3663 222.625 20.0913 223.837 20.0702C225.049 20.049 226.001 20.2965 226.695 20.8124C227.436 21.3756 227.818 22.2691 227.84 23.4929L227.947 29.6299L225.409 29.6742L225.389 28.5404C224.769 29.4394 223.829 29.8998 222.569 29.9218ZM223.311 28.0906C223.899 28.0803 224.382 27.9219 224.761 27.6152C225.14 27.3086 225.325 26.8973 225.316 26.3814L225.302 25.5895L224.294 25.6071C223.502 25.6209 222.904 25.7333 222.499 25.9444C222.107 26.1553 221.915 26.5007 221.923 26.9806C221.937 27.7365 222.399 28.1065 223.311 28.0906ZM236.177 18.0005C235.693 18.477 235.044 18.7224 234.228 18.7367C233.412 18.7509 232.76 18.5282 232.272 18.0687C231.783 17.5971 231.502 16.9599 231.428 16.1571L233.3 16.1244C233.384 16.8431 233.685 17.1979 234.201 17.1889C234.765 17.179 235.082 16.8134 235.154 16.0921L236.989 16.06C236.943 16.865 236.673 17.5118 236.177 18.0005ZM230.096 29.5924L229.932 20.1798L232.506 20.1349L232.615 26.416L236.141 20.0715L238.715 20.0265L238.879 29.4391L236.306 29.484L236.196 23.203L232.67 29.5475L230.096 29.5924ZM248.344 21.7127L245.554 21.7614L245.686 29.3203L243.095 29.3655L242.963 21.8067L240.173 21.8554L240.141 20.0016L248.312 19.859L248.344 21.7127ZM254.124 29.371C252.66 29.3966 251.483 28.9911 250.592 28.1545C249.641 27.307 249.153 26.1453 249.127 24.6695L249.125 24.5255C249.099 23.0618 249.546 21.8658 250.466 20.9376C251.362 20.0338 252.501 19.5699 253.88 19.5458C255.188 19.523 256.263 19.8823 257.104 20.6237C258.042 21.4474 258.525 22.6572 258.553 24.253L258.566 24.9728L251.781 25.0913C251.831 25.8825 252.057 26.4907 252.461 26.9157C252.876 27.3285 253.444 27.5286 254.163 27.5161C255.291 27.4964 255.938 27.047 256.102 26.168L258.568 26.125C258.43 27.1476 257.976 27.9416 257.205 28.5071C256.447 29.0604 255.42 29.3484 254.124 29.371ZM256 23.4154C255.892 22.0131 255.196 21.3231 253.912 21.3455C253.324 21.3558 252.841 21.5502 252.464 21.9289C252.098 22.2953 251.873 22.8153 251.789 23.4889L256 23.4154ZM264.081 19.5838L268.185 19.5121C269.288 19.4929 270.156 19.6698 270.786 20.0428C271.417 20.4039 271.739 20.9803 271.753 21.7722L271.753 21.8082C271.773 22.924 271.185 23.6364 269.99 23.9453C271.446 24.1719 272.185 24.8731 272.205 26.049L272.206 26.067C272.221 26.9668 271.927 27.6621 271.324 28.1527C270.72 28.6433 269.825 28.8989 268.637 28.9197L264.246 28.9963L264.081 19.5838ZM266.683 21.1766L266.721 23.3183L267.747 23.3004C268.659 23.2844 269.108 22.9045 269.095 22.1607L269.095 22.1427C269.088 21.7587 268.963 21.4969 268.721 21.3571C268.478 21.2173 268.105 21.1518 267.601 21.1606L266.683 21.1766ZM266.749 24.938L266.791 27.3317L268.033 27.31C269.065 27.292 269.574 26.887 269.56 26.0951L269.559 26.0771C269.546 25.2853 269.065 24.8976 268.117 24.9141L266.749 24.938ZM284.06 22.7996L280.22 28.7175L277.071 28.7725L281.669 21.9772L277.062 15.9007L280.086 15.8479L284.035 21.4138L283.937 15.7807L286.799 15.7307L286.897 21.3818L290.704 15.6625L293.674 15.6107L289.28 21.7363L294.15 28.4743L290.929 28.5306L286.921 22.7136L287.023 28.5987L284.162 28.6487L284.06 22.7996ZM295.442 28.4518L295.278 19.0392L297.851 18.9943L297.961 25.2754L301.487 18.9309L304.06 18.8859L304.225 28.2985L301.651 28.3434L301.541 22.0624L298.016 28.4069L295.442 28.4518ZM313.734 21.0754C313.754 22.2153 313.166 22.9276 311.971 23.2125C313.391 23.4158 314.111 24.1053 314.132 25.2811L314.133 25.3351C314.148 26.199 313.788 26.9194 313.054 27.4963C312.32 28.0732 311.353 28.3721 310.153 28.393C308.858 28.4157 307.845 28.1393 307.114 27.5639C306.396 26.9764 305.956 26.144 305.793 25.0666L308.114 25.0261C308.243 25.5279 308.46 25.9022 308.764 26.1489C309.08 26.3835 309.52 26.4958 310.084 26.486C311.02 26.4696 311.481 26.0655 311.467 25.2736L311.466 25.2196C311.454 24.5118 310.986 24.1659 310.062 24.182L308.838 24.2034L308.81 22.5836L309.872 22.5651C310.688 22.5508 311.09 22.2078 311.078 21.5359L311.077 21.4999C311.066 20.864 310.647 20.5532 309.819 20.5677C308.979 20.5823 308.458 20.9995 308.256 21.8191L305.935 21.8597C306.024 20.7899 306.436 19.9786 307.17 19.4257C307.917 18.8726 308.812 18.587 309.856 18.5687C310.984 18.549 311.906 18.761 312.621 19.2046C313.349 19.6479 313.72 20.2596 313.734 21.0394L313.734 21.0754ZM320.383 28.2145C318.92 28.24 317.742 27.8345 316.852 26.9979C315.901 26.1504 315.412 24.9887 315.386 23.513L315.384 23.369C315.358 21.9052 315.806 20.7092 316.726 19.781C317.622 18.8772 318.76 18.4133 320.14 18.3892C321.448 18.3664 322.522 18.7257 323.363 19.4671C324.302 20.2909 324.785 21.5006 324.813 23.0964L324.825 23.8163L318.04 23.9347C318.09 24.726 318.317 25.3341 318.72 25.7591C319.135 26.1719 319.703 26.3721 320.423 26.3595C321.551 26.3398 322.197 25.8905 322.362 25.0115L324.827 24.9684C324.689 25.991 324.235 26.785 323.465 27.3506C322.706 27.9039 321.679 28.1919 320.383 28.2145ZM322.26 22.2588C322.151 20.8565 321.455 20.1665 320.171 20.189C319.583 20.1992 319.101 20.3937 318.723 20.7723C318.358 21.1388 318.133 21.6588 318.048 22.3323L322.26 22.2588Z" fill="#262626"/>
</svg>
