<svg width="230" height="84" viewBox="0 0 230 84" fill="none" xmlns="http://www.w3.org/2000/svg">
<path d="M190.793 208.178C224.136 208.178 229.597 190.064 229.597 158.722H217.238C217.238 183.45 214.076 189.488 210.052 189.488C205.165 189.488 203.441 182.012 199.991 168.498C188.781 123.929 185.62 117.891 135.893 101.789C164.924 92.0126 152.852 20.1278 177.859 17.8274C169.523 22.4281 168.086 30.4792 168.086 37.3801C168.086 50.3194 178.434 58.9456 193.093 58.9456C207.752 58.9456 218.387 48.3066 218.387 29.6165C218.387 10.0639 204.016 0 187.057 0C128.995 0 154.289 95.7506 121.522 95.7506H111.174V17.5399H126.695V4.88816H42.4768V17.5399H57.9983V95.7506H46.7883C14.0207 95.7506 39.6024 0 -18.747 0C-35.4182 0 -49.79 10.0639 -49.79 29.6165C-49.79 48.3066 -39.1549 58.9456 -23.6334 58.9456C-8.68674 58.9456 -0.351116 50.0318 -0.351116 37.0926C-0.351116 28.1789 -4.08778 20.4153 -10.4114 16.3897C15.1704 24.1533 2.2358 93.7378 30.6919 101.789C-17.3098 118.466 -20.1842 123.929 -31.3941 168.498C-34.8434 182.012 -36.568 189.488 -41.167 189.488C-45.4785 189.488 -48.6403 183.45 -48.6403 158.722H-61C-61 190.639 -55.8262 208.178 -22.1962 208.178C6.2599 208.178 16.895 192.651 23.506 168.786C30.4045 145.495 31.2668 108.402 51.0998 108.402H57.9983V190.639H42.4768V203.29H126.695V190.639H111.174V108.402H117.497C137.33 108.402 137.905 145.495 144.804 168.786C151.415 192.651 162.337 208.178 190.793 208.178Z" fill="#EBECED" fill-opacity="0.5"/>
</svg>
