<svg width="24" height="24" viewBox="0 0 24 24" fill="none" xmlns="http://www.w3.org/2000/svg">
<path opacity="0.8" d="M0 2C0 0.89543 0.895431 0 2 0H22C23.1046 0 24 0.895431 24 2V22C24 23.1046 23.1046 24 22 24H0V2Z" fill="#262626"/>
<g clip-path="url(#clip0_4266_3732)">
<path d="M9.32001 5.56013C10.3182 5.55891 11.2759 5.95448 11.9823 6.65972C12.6886 7.36495 13.0856 8.32213 13.0859 9.32031C13.0862 10.3184 12.6897 11.2758 11.9837 11.9815C11.2778 12.6871 10.3203 13.0831 9.3221 13.0825C8.32392 13.0818 7.36695 12.6844 6.66197 11.9777C5.95707 11.2711 5.56195 10.3132 5.56359 9.31505C5.56613 8.31964 5.9627 7.36586 6.66672 6.66218C7.37062 5.9585 8.3246 5.56225 9.32001 5.56016M9.32001 4.48488C8.36337 4.48588 7.42848 4.77045 6.63369 5.30278C5.83878 5.835 5.2196 6.59106 4.85451 7.47521C4.48931 8.35951 4.39463 9.33204 4.58221 10.2701C4.76989 11.2082 5.23154 12.0695 5.9088 12.7452C6.58595 13.4209 7.44836 13.8805 8.38679 14.066C9.32533 14.2515 10.2977 14.1546 11.1811 13.7874C12.0645 13.4202 12.8191 12.7994 13.3495 12.0033C13.88 11.2071 14.1625 10.2717 14.1612 9.31503C14.1604 8.46608 13.9361 7.6324 13.5108 6.89779C13.0856 6.16309 12.4744 5.55329 11.7388 5.12967C11.0031 4.70613 10.1689 4.48376 9.32004 4.48487L9.32001 4.48488Z" fill="white"/>
<path d="M19.2001 16.7473C19.4153 16.9638 19.536 17.2568 19.536 17.5621C19.536 17.8673 19.4153 18.1602 19.2001 18.3768L18.383 19.1923H18.3829C18.1667 19.4083 17.8737 19.5296 17.5682 19.5296C17.2625 19.5296 16.9695 19.4083 16.7534 19.1923L13.2501 15.6925C13.0349 15.4756 12.9141 15.1825 12.9141 14.8769C12.9141 14.5713 13.0349 14.2782 13.2501 14.0613L14.0721 13.2425C14.2894 13.028 14.5823 12.9077 14.8877 12.9077C15.193 12.9077 15.4859 13.028 15.7032 13.2425L19.2001 16.7473Z" fill="white"/>
<path fill-rule="evenodd" clip-rule="evenodd" d="M9.98958 7.32145C9.98958 6.95326 9.69111 6.65479 9.32292 6.65479C8.95473 6.65479 8.65625 6.95326 8.65625 7.32145V8.65479H7.32292C6.95473 8.65479 6.65625 8.95326 6.65625 9.32145C6.65625 9.68964 6.95473 9.98812 7.32292 9.98812H8.65625V11.3215C8.65625 11.6896 8.95473 11.9881 9.32292 11.9881C9.69111 11.9881 9.98958 11.6896 9.98958 11.3215V9.98812H11.3229C11.6911 9.98812 11.9896 9.68964 11.9896 9.32145C11.9896 8.95326 11.6911 8.65479 11.3229 8.65479H9.98958V7.32145Z" fill="white"/>
</g>
<defs>
<clipPath id="clip0_4266_3732">
<rect width="16" height="16" fill="white" transform="translate(4 4)"/>
</clipPath>
</defs>
</svg>
