<svg width="383" height="72" viewBox="0 0 383 72" fill="none" xmlns="http://www.w3.org/2000/svg">
    <path d="M331.405 274C375.29 274 382.478 250.157 382.478 208.906H366.21C366.21 241.453 362.049 249.401 356.752 249.401C350.321 249.401 348.051 239.561 343.511 221.773C328.757 163.113 324.595 155.166 259.147 133.972C297.357 121.105 281.467 26.4917 314.381 23.4641C303.41 29.5193 301.518 40.116 301.518 49.1989C301.518 66.2293 315.138 77.5829 334.432 77.5829C353.726 77.5829 367.723 63.5801 367.723 38.9807C367.723 13.2458 348.808 0 326.487 0C250.067 0 283.359 126.025 240.231 126.025H226.611V23.0856H247.041V6.43369H136.194V23.0856H156.623V126.025H141.869C98.7406 126.025 132.411 0 55.6125 0C33.6702 0 14.7543 13.2458 14.7543 38.9807C14.7543 63.5801 28.752 77.5829 49.1811 77.5829C68.8536 77.5829 79.8247 65.8508 79.8247 48.8204C79.8247 37.0884 74.9066 26.8702 66.5837 21.5718C100.254 31.7901 83.2296 123.376 120.683 133.972C57.5041 155.923 53.7209 163.113 38.9666 221.773C34.4268 239.561 32.1569 249.401 26.1038 249.401C20.4291 249.401 16.2676 241.453 16.2676 208.906H0C0 250.914 6.8097 274 51.0727 274C88.526 274 102.524 253.564 111.225 222.152C120.305 191.497 121.44 142.677 147.543 142.677H156.623V250.914H136.194V267.566H247.041V250.914H226.611V142.677H234.934C261.038 142.677 261.795 191.497 270.874 222.152C279.576 253.564 293.952 274 331.405 274Z" fill="white"/>
</svg>
