<svg width="32" height="32" viewBox="0 0 32 32" fill="none" xmlns="http://www.w3.org/2000/svg">
<g clip-path="url(#clip0_2819_6081)">
<path d="M15.9022 0.800293C15.4628 0.800293 15.0232 0.898774 14.6828 1.09574L3.81337 7.38317C3.13239 7.7771 3.13239 8.40001 3.81337 8.79393L14.6828 15.0814C15.3638 15.4753 16.4406 15.4753 17.1215 15.0814L27.991 8.79393C28.6719 8.40008 28.6719 7.7771 27.991 7.38324L17.1215 1.09581C16.781 0.898703 16.3416 0.800293 15.9022 0.800293ZM15.9681 6.69601C16.4149 6.69992 16.8498 6.78185 17.2185 6.93156C17.5873 7.08127 17.8735 7.29213 18.0415 7.5378C18.2094 7.78346 18.2517 8.05305 18.163 8.31289C18.0743 8.57273 17.8585 8.81129 17.5426 8.9988C17.3321 9.12572 17.0813 9.22666 16.8048 9.29579C16.5282 9.36492 16.2313 9.40089 15.9312 9.4016C15.6311 9.40232 15.3337 9.36777 15.0562 9.29995C14.7787 9.23214 14.5266 9.1324 14.3144 9.00648C14.1022 8.88056 13.9341 8.73096 13.8198 8.56631C13.7055 8.40165 13.6472 8.2252 13.6484 8.04713C13.6496 7.86905 13.7102 7.69288 13.8267 7.52876C13.9432 7.36465 14.1133 7.21585 14.3272 7.09093C14.5423 6.96333 14.7983 6.86263 15.0802 6.79479C15.362 6.72696 15.6639 6.69337 15.9681 6.69601H15.9681ZM3.08756 9.98496C2.6782 9.97393 2.3999 10.2935 2.3999 10.8588V22.08C2.3999 22.8664 2.93856 23.7993 3.61953 24.1926L14.0746 30.2301C14.7556 30.6234 15.2943 30.3124 15.2943 29.526V18.3046C15.2943 17.5182 14.7556 16.5855 14.0746 16.1921L3.61953 10.1547C3.42812 10.044 3.24774 9.98909 3.08756 9.98482V9.98496ZM28.7591 9.9851C28.599 9.98937 28.4188 10.0442 28.2273 10.1548L17.7718 16.1923C17.0908 16.5856 16.5522 17.5185 16.5522 18.3049V29.5264C16.5522 30.3127 17.0908 30.6235 17.7718 30.2301L28.2274 24.1929C28.9083 23.7996 29.4468 22.8668 29.4468 22.0804V10.8589C29.4468 10.2938 29.1685 9.97429 28.7591 9.98524V9.9851ZM4.05722 11.5454C4.30077 11.5285 4.57743 11.605 4.85923 11.767C5.14102 11.929 5.41799 12.1709 5.66213 12.4682C5.90628 12.7656 6.10895 13.1078 6.24968 13.4603C6.39041 13.8128 6.4642 14.1631 6.46361 14.4759C6.46386 14.7098 6.42263 14.9176 6.34228 15.0873C6.26193 15.2569 6.14403 15.3852 5.99533 15.4648C5.84664 15.5444 5.67006 15.5736 5.47568 15.5509C5.28131 15.5283 5.07296 15.4541 4.86255 15.3326C4.65214 15.2111 4.4438 15.0447 4.24943 14.843C4.05506 14.6412 3.87848 14.4081 3.72979 14.1568C3.58109 13.9056 3.4632 13.6411 3.38286 13.3787C3.30251 13.1162 3.26129 12.8609 3.26154 12.6272C3.26096 12.3151 3.33417 12.0508 3.47382 11.8609C3.61347 11.6711 3.81466 11.5623 4.05722 11.5454ZM19.8199 16.1467C20.0625 16.1635 20.2637 16.2723 20.4034 16.4622C20.5431 16.6521 20.6163 16.9163 20.6157 17.2285C20.6152 17.7003 20.4463 18.2497 20.1461 18.7562C19.8459 19.2626 19.439 19.6847 19.0147 19.9297C18.5904 20.1746 18.1834 20.2224 17.8832 20.0626C17.583 19.9027 17.4141 19.5483 17.4136 19.0772C17.413 18.7644 17.4868 18.4141 17.6275 18.0616C17.7683 17.7091 17.9709 17.3669 18.2151 17.0695C18.4592 16.7722 18.7362 16.5303 19.018 16.3683C19.2998 16.2063 19.5765 16.1298 19.82 16.1467H19.8199ZM8.04195 18.1865C8.2855 18.1696 8.56215 18.2461 8.84395 18.4081C9.12575 18.5701 9.40271 18.812 9.64686 19.1093C9.891 19.4066 10.0937 19.7488 10.2344 20.1014C10.3751 20.4539 10.4489 20.8042 10.4483 21.117C10.4478 21.5881 10.2789 21.9425 9.97871 22.1024C9.67851 22.2622 9.27157 22.2144 8.84728 21.9694C8.42299 21.7245 8.01605 21.3024 7.71585 20.7959C7.41566 20.2895 7.24676 19.74 7.24627 19.2683C7.24569 18.9562 7.31889 18.6919 7.45854 18.502C7.59819 18.3121 7.79938 18.2033 8.04195 18.1865ZM27.7897 20.2771C28.0322 20.294 28.2334 20.4028 28.373 20.5927C28.5127 20.7825 28.5859 21.0468 28.5853 21.359C28.5848 21.8307 28.4159 22.3801 28.1157 22.8866C27.8155 23.3931 27.4086 23.8152 26.9843 24.0601C26.56 24.3051 26.153 24.3529 25.8528 24.193C25.5526 24.0332 25.3837 23.6788 25.3832 23.2076C25.3826 22.8949 25.4564 22.5445 25.5971 22.192C25.7378 21.8395 25.9405 21.4973 26.1847 21.2C26.4288 20.9026 26.7058 20.6607 26.9876 20.4987C27.2694 20.3367 27.546 20.2602 27.7896 20.2771H27.7897ZM12.027 24.8783C12.2705 24.8615 12.5472 24.9379 12.8289 25.1C13.1107 25.262 13.3877 25.5039 13.6318 25.8012C13.876 26.0985 14.0786 26.4407 14.2193 26.7932C14.3601 27.1457 14.4339 27.496 14.4333 27.8088C14.4335 28.0427 14.3923 28.2505 14.3119 28.4202C14.2316 28.5898 14.1137 28.7181 13.965 28.7977C13.8163 28.8773 13.6397 28.9065 13.4453 28.8839C13.251 28.8612 13.0426 28.787 12.8322 28.6655C12.6218 28.544 12.4135 28.3776 12.2191 28.1759C12.0247 27.9742 11.8481 27.741 11.6994 27.4897C11.5508 27.2385 11.4329 26.9741 11.3525 26.7116C11.2722 26.4491 11.231 26.1938 11.2312 25.9601C11.2306 25.648 11.3038 25.3837 11.4435 25.1938C11.5831 25.004 11.7843 24.8952 12.0269 24.8783H12.027Z" fill="#DF5B35"/>
</g>
<defs>
<clipPath id="clip0_2819_6081">
<rect width="32" height="32" fill="white"/>
</clipPath>
</defs>
</svg>
