<svg width="17" height="16" viewBox="0 0 17 16" fill="none" xmlns="http://www.w3.org/2000/svg">
<mask id="mask0_2833_6203" style="mask-type:alpha" maskUnits="userSpaceOnUse" x="1" y="2" width="15" height="11">
<path d="M8.65658 2.66699C5.32324 2.66699 2.47658 4.74033 1.32324 7.66699C2.47658 10.5937 5.32324 12.667 8.65658 12.667C11.9899 12.667 14.8366 10.5937 15.9899 7.66699C14.8366 4.74033 11.9899 2.66699 8.65658 2.66699ZM8.65658 11.0003C6.81658 11.0003 5.32324 9.50699 5.32324 7.66699C5.32324 5.82699 6.81658 4.33366 8.65658 4.33366C10.4966 4.33366 11.9899 5.82699 11.9899 7.66699C11.9899 9.50699 10.4966 11.0003 8.65658 11.0003ZM8.65658 5.66699C7.54991 5.66699 6.65658 6.56033 6.65658 7.66699C6.65658 8.77366 7.54991 9.66699 8.65658 9.66699C9.76324 9.66699 10.6566 8.77366 10.6566 7.66699C10.6566 6.56033 9.76324 5.66699 8.65658 5.66699Z" fill="black"/>
</mask>
<g mask="url(#mask0_2833_6203)">
<rect x="0.656738" width="16" height="16" fill="#A3A3A3"/>
</g>
</svg>
