<svg width="196" height="196" viewBox="0 0 196 196" fill="none" xmlns="http://www.w3.org/2000/svg">
<path d="M98 0C152.124 0 196 43.8761 196 98C196 152.124 152.124 196 98 196C43.8761 196 0 152.124 0 98C0 43.8761 43.8761 0 98 0ZM98 161.7C133.181 161.7 161.7 133.181 161.7 98C161.7 62.8195 133.181 34.3 98 34.3C62.8195 34.3 34.3 62.8195 34.3 98C34.3 133.181 62.8195 161.7 98 161.7Z" fill="#F2C94C"/>
<g clip-path="url(#clip0_2839_6211)">
<path d="M90.9273 22.3437L84.7013 22.9358L84.6132 21.9985L86.0191 21.865L85.1675 12.9329L83.7615 13.0665L83.6733 12.1292L89.8993 11.537C91.7336 11.3632 93.0841 11.4589 93.9509 11.8293C94.8176 12.1997 95.2964 12.8523 95.3845 13.7896C95.4526 14.5001 95.2384 15.0847 94.7446 15.5382C94.2507 15.9943 93.4747 16.3218 92.419 16.5234C93.6788 16.4906 94.6186 16.6619 95.2434 17.0399C95.8683 17.4178 96.2185 18.0049 96.2941 18.8011C96.3899 19.8115 96.017 20.6052 95.1779 21.1872C94.3364 21.7692 92.9203 22.1547 90.9324 22.3437H90.9273ZM91.595 14.2129C91.5346 13.5729 91.3254 13.1168 90.9702 12.8422C90.6149 12.5676 90.0883 12.4643 89.3904 12.5298L89.0502 12.5625L89.4181 16.4226L89.9926 16.3672C90.6325 16.3067 91.076 16.1102 91.3229 15.7776C91.5698 15.445 91.6605 14.9234 91.5925 14.2129H91.595ZM89.5037 17.3372L89.8993 21.4946L90.3251 21.4543C91.1642 21.3736 91.7462 21.1544 92.0687 20.7941C92.3938 20.4338 92.5197 19.8896 92.4517 19.1665C92.3811 18.4282 92.1594 17.9117 91.7865 17.6169C91.4136 17.3221 90.7938 17.2163 89.927 17.2994L89.5012 17.3397L89.5037 17.3372Z" fill="#262626"/>
<path d="M107.62 22.9073C106.751 22.8393 106.093 22.5672 105.642 22.0885C105.191 21.6097 104.952 20.9244 104.921 20.035C104.629 20.8564 104.143 21.4737 103.468 21.8869C102.79 22.3001 101.976 22.4689 101.021 22.3933C100.023 22.3152 99.2523 22.0154 98.7055 21.4938C98.1588 20.9723 97.9194 20.2895 97.9849 19.4504C98.058 18.498 98.5191 17.7724 99.3682 17.281C100.215 16.7872 101.502 16.4873 103.231 16.379L104.785 16.2858L104.906 14.7261C104.972 13.872 104.838 13.2169 104.501 12.7608C104.163 12.3048 103.619 12.0478 102.863 11.9898C102.55 11.9646 102.243 11.9823 101.946 12.0377C101.648 12.0931 101.424 12.1738 101.273 12.2745C101.729 12.4812 102.054 12.7331 102.246 13.0279C102.437 13.3227 102.515 13.6906 102.482 14.1315C102.44 14.6732 102.248 15.0864 101.903 15.3762C101.558 15.6634 101.109 15.7869 100.552 15.7441C99.9679 15.6987 99.5219 15.5072 99.212 15.1671C98.9021 14.8269 98.7685 14.3885 98.8088 13.8468C98.8819 12.8944 99.4513 12.1561 100.517 11.6371C101.58 11.118 102.868 10.919 104.377 11.0349C105.859 11.1508 106.988 11.5388 107.766 12.2015C108.545 12.8641 108.892 13.7359 108.809 14.8168L108.358 20.6246C108.336 20.9244 108.363 21.1512 108.444 21.3074C108.524 21.4636 108.666 21.5493 108.865 21.5669C109.134 21.5871 109.356 21.4157 109.527 21.0504C109.699 20.685 109.812 20.1534 109.867 19.4555L110.785 19.526C110.686 20.7934 110.386 21.6929 109.888 22.227C109.389 22.7612 108.633 22.988 107.622 22.9099L107.62 22.9073ZM101.938 19.1783C101.903 19.6192 101.963 19.9543 102.117 20.1811C102.271 20.4079 102.525 20.5364 102.883 20.5641C103.382 20.6019 103.785 20.3953 104.092 19.9392C104.4 19.4832 104.589 18.8079 104.659 17.9109L104.715 17.2054L103.954 17.3188C103.289 17.4095 102.797 17.601 102.48 17.8908C102.162 18.1805 101.984 18.6114 101.938 19.1808V19.1783Z" fill="#262626"/>
<path d="M127.306 27.9089C126.459 27.6468 125.862 27.2639 125.509 26.7599C125.157 26.256 124.998 25.4623 125.033 24.3814C125.031 24.2453 125.041 23.9657 125.068 23.5399C125.096 23.114 125.096 22.794 125.073 22.5774C125.056 22.1994 124.97 21.8996 124.814 21.6779C124.658 21.4586 124.428 21.3024 124.129 21.2092L123.781 21.1009L122.554 25.0693L123.577 25.3867L123.297 26.2862L117.547 24.5074L117.824 23.6079L118.847 23.9254L120.074 19.9569L119.727 19.8486C119.427 19.7554 119.15 19.7554 118.898 19.8486C118.646 19.9418 118.396 20.1384 118.155 20.4382C118.013 20.6045 117.83 20.8716 117.603 21.242C117.376 21.6123 117.232 21.8492 117.172 21.95C116.61 22.852 116.038 23.4164 115.461 23.6406C114.884 23.8649 114.179 23.8498 113.347 23.5928C112.405 23.3005 111.805 22.8369 111.548 22.1969C111.291 21.5569 111.359 20.5969 111.757 19.3144L112.637 19.5866C112.412 20.3097 112.291 20.859 112.274 21.2344C112.254 21.6098 112.342 21.8265 112.531 21.887C112.626 21.9172 112.725 21.8996 112.828 21.8341C112.931 21.7686 113.05 21.6375 113.186 21.441C113.239 21.3679 113.314 21.2445 113.413 21.0731C113.511 20.9018 113.586 20.7783 113.639 20.7053C114.032 20.0653 114.365 19.637 114.642 19.4228C114.917 19.2086 115.265 19.0549 115.683 18.9592C115.985 18.9037 116.35 18.866 116.781 18.8508C117.212 18.8357 117.789 18.8408 118.512 18.871C118.281 18.6493 118.119 18.3671 118.024 18.0244C117.928 17.6817 117.885 17.1299 117.895 16.3715C117.913 15.7794 117.895 15.3586 117.837 15.1092C117.779 14.8598 117.693 14.6582 117.578 14.502C117.603 14.57 117.613 14.6431 117.61 14.7237C117.608 14.8043 117.593 14.8875 117.567 14.9681C117.429 15.4191 117.169 15.7391 116.789 15.9256C116.408 16.1145 115.988 16.1372 115.524 15.9936C115.033 15.8424 114.693 15.5753 114.504 15.1974C114.315 14.8169 114.3 14.3684 114.461 13.8494C114.637 13.2774 114.962 12.8793 115.433 12.6601C115.905 12.4409 116.434 12.4208 117.021 12.6022C117.661 12.8012 118.134 13.159 118.437 13.6781C118.739 14.1971 118.895 15.1168 118.908 16.4345C118.918 17.3643 118.994 17.9841 119.127 18.2965C119.263 18.6064 119.48 18.8105 119.78 18.9012L120.352 19.0776L121.503 15.3536L120.541 15.0563L120.82 14.1568L126.447 15.8978L126.167 16.7973L125.204 16.5L124.053 20.224L124.625 20.4004C124.94 20.4987 125.245 20.4533 125.54 20.2694C125.834 20.0855 126.26 19.6067 126.812 18.8357C127.56 17.7674 128.203 17.1073 128.737 16.8528C129.271 16.6008 129.846 16.5681 130.458 16.757C131.045 16.9384 131.471 17.2534 131.735 17.7019C132 18.1504 132.045 18.6593 131.866 19.2338C131.705 19.7529 131.443 20.1157 131.08 20.3248C130.717 20.5339 130.289 20.5617 129.798 20.4105C129.319 20.2618 128.979 20.0048 128.772 19.6344C128.566 19.2641 128.53 18.8534 128.671 18.4049C128.702 18.3091 128.737 18.231 128.777 18.168C128.82 18.105 128.87 18.0471 128.933 17.9916C128.739 18.037 128.55 18.1453 128.362 18.3192C128.173 18.4931 127.9 18.8458 127.543 19.3774C127.122 20.0099 126.782 20.4382 126.517 20.6624C126.253 20.8867 125.978 21.0303 125.691 21.0908C126.303 21.4738 126.787 21.7963 127.142 22.0558C127.495 22.3153 127.774 22.5496 127.976 22.7613C128.286 23.0662 128.493 23.3887 128.596 23.7263C128.699 24.0639 128.734 24.6107 128.697 25.359C128.654 26.1225 128.654 26.571 128.697 26.7045C128.737 26.838 128.813 26.9187 128.923 26.9539C129.115 27.0119 129.309 26.8783 129.508 26.5508C129.707 26.2232 129.916 25.7067 130.135 24.9962L131.015 25.2683C130.614 26.5634 130.13 27.4024 129.566 27.7804C129.002 28.1583 128.248 28.2011 127.306 27.9114V27.9089Z" fill="#262626"/>
<path d="M135.57 30.8693L136.53 31.4363L136.051 32.2476L130.518 28.9822L130.997 28.1708L132.214 28.8889L136.775 21.1612L135.558 20.4432L136.036 19.6318L141.569 22.8973L141.091 23.7086L140.131 23.1417L138.17 26.4625L141.01 28.1381L142.97 24.8172L142.01 24.2503L142.489 23.439L148.022 26.7044L147.543 27.5157L146.326 26.7976L141.766 34.5253L142.983 35.2434L142.504 36.0547L136.971 32.7893L137.45 31.978L138.41 32.5449L140.534 28.9494L137.694 27.2738L135.57 30.8693Z" fill="#262626"/>
<path d="M155.243 32.2654C156.491 33.3539 157.176 34.6867 157.299 36.2615C157.42 37.8363 156.929 39.2598 155.82 40.5297C154.732 41.7769 153.404 42.4396 151.842 42.5152C150.277 42.5908 148.874 42.0843 147.624 40.9959C146.364 39.8973 145.674 38.5644 145.553 36.9998C145.432 35.4351 145.928 34.0115 147.047 32.7315C148.146 31.4717 149.471 30.8065 151.026 30.7309C152.578 30.6553 153.984 31.1668 155.243 32.2654ZM154.581 33.0238C154.087 32.5929 153.49 32.5551 152.789 32.9104C152.089 33.2657 151.182 34.0845 150.066 35.3645C148.919 36.6772 148.214 37.7103 147.947 38.4611C147.679 39.212 147.793 39.8041 148.287 40.2375C148.77 40.6608 149.38 40.6834 150.113 40.3105C150.847 39.9376 151.749 39.1364 152.82 37.9119C153.918 36.652 154.606 35.6291 154.888 34.843C155.168 34.0543 155.067 33.4496 154.583 33.0263L154.581 33.0238Z" fill="#262626"/>
<path d="M156.74 50.4494C155.626 49.0914 155.132 47.6375 155.258 46.0829C155.384 44.5283 156.123 43.198 157.468 42.0919C158.758 41.0311 160.157 40.575 161.666 40.7237C163.173 40.8724 164.442 41.5753 165.476 42.8326C166.473 44.0471 166.907 45.3296 166.781 46.6801C166.652 48.0331 166.01 49.1846 164.853 50.1345C164.742 50.2252 164.636 50.3083 164.533 50.3839C164.43 50.4595 164.329 50.5275 164.231 50.5905L159.879 45.2943L159.698 45.4429C158.584 46.3576 157.902 47.2142 157.652 48.013C157.4 48.8092 157.571 49.5676 158.161 50.2831C158.65 50.8778 159.222 51.2255 159.877 51.3263C160.532 51.427 161.268 51.2784 162.089 50.8803L162.618 51.6941C161.588 52.2837 160.55 52.4651 159.507 52.2409C158.463 52.0166 157.544 51.4195 156.745 50.4494H156.74ZM164.735 43.4121C164.39 42.9939 163.906 42.878 163.286 43.0644C162.664 43.2509 161.772 43.7951 160.608 44.6971L162.578 47.0958C163.792 46.098 164.541 45.3396 164.825 44.8206C165.11 44.3016 165.08 43.8304 164.735 43.4121Z" fill="#262626"/>
<path d="M170.82 52.8891C171.263 53.6047 171.381 54.3177 171.175 55.0258C170.966 55.7338 170.547 56.283 169.918 56.6761C169.298 57.0591 168.627 57.1851 167.909 57.0515C167.189 56.918 166.607 56.4947 166.163 55.7791C165.712 55.051 165.581 54.3379 165.77 53.6425C165.959 52.9445 166.375 52.3978 167.02 51.9997C167.675 51.594 168.36 51.458 169.076 51.594C169.792 51.7301 170.374 52.1635 170.825 52.8916L170.82 52.8891Z" fill="#262626"/>
<path d="M167.579 67.5802L165.055 61.8582L165.916 61.4777L166.486 62.7703L174.697 59.1496L174.128 57.857L174.99 57.4766L177.514 63.1986C178.258 64.8842 178.59 66.197 178.512 67.1343C178.434 68.0741 177.965 68.7342 177.104 69.1147C176.451 69.4019 175.829 69.3843 175.242 69.0593C174.652 68.7342 174.098 68.1018 173.574 67.162C174.002 68.3462 174.135 69.2936 173.974 70.0041C173.813 70.7146 173.364 71.2337 172.634 71.5562C171.706 71.9644 170.835 71.8611 170.016 71.2488C169.199 70.634 168.386 69.412 167.579 67.5828V67.5802ZM171.883 64.6524L168.061 66.3381L168.234 66.7311C168.575 67.5021 168.965 67.9834 169.411 68.1774C169.855 68.3714 170.411 68.321 171.077 68.0287C171.757 67.7289 172.178 67.356 172.339 66.91C172.5 66.464 172.407 65.8417 172.054 65.0455L171.88 64.6524H171.883ZM175.506 65.6527C176.093 65.3932 176.461 65.0531 176.61 64.6272C176.758 64.2039 176.69 63.6698 176.408 63.0298L176.27 62.7174L172.722 64.2821L172.956 64.8112C173.216 65.3983 173.541 65.7586 173.934 65.8896C174.327 66.0206 174.851 65.9425 175.504 65.6527H175.506Z" fill="#262626"/>
<path d="M172.266 83.5949C172.059 82.7483 172.115 82.0378 172.43 81.4608C172.745 80.8838 173.319 80.4429 174.156 80.1355C173.284 80.1128 172.546 79.8457 171.941 79.3317C171.336 78.8177 170.923 78.0946 170.696 77.1674C170.459 76.1973 170.505 75.3709 170.83 74.6881C171.155 74.0052 171.727 73.5643 172.546 73.3653C173.475 73.1385 174.307 73.3501 175.037 74.0027C175.771 74.6553 176.456 75.7841 177.098 77.3916L177.673 78.8379L179.192 78.4675C180.024 78.2634 180.606 77.9308 180.933 77.4697C181.261 77.0061 181.337 76.409 181.158 75.6732C181.082 75.3684 180.974 75.0836 180.828 74.8166C180.681 74.552 180.538 74.363 180.392 74.2496C180.336 74.7485 180.2 75.134 179.981 75.4087C179.762 75.6833 179.437 75.8723 179.006 75.9781C178.479 76.1066 178.023 76.0512 177.643 75.8143C177.262 75.5775 177.005 75.1869 176.872 74.6452C176.733 74.0758 176.776 73.592 177.003 73.1914C177.227 72.7908 177.605 72.5262 178.132 72.3977C179.061 72.171 179.938 72.4834 180.762 73.3325C181.586 74.1816 182.178 75.3432 182.536 76.8121C182.889 78.2533 182.871 79.4501 182.483 80.395C182.097 81.3424 181.377 81.9446 180.321 82.2016L174.662 83.5823C174.37 83.6529 174.163 83.7511 174.04 83.8771C173.916 84.0031 173.878 84.1618 173.926 84.3558C173.989 84.6179 174.224 84.7766 174.624 84.8245C175.025 84.8724 175.567 84.8144 176.247 84.6481L176.466 85.5426C175.231 85.8449 174.282 85.8399 173.619 85.5325C172.956 85.2226 172.505 84.5776 172.263 83.5924L172.266 83.5949ZM174.04 77.0338C173.609 77.1396 173.312 77.3009 173.143 77.5176C172.974 77.7343 172.934 78.0165 173.019 78.3642C173.138 78.8505 173.46 79.1679 173.989 79.3166C174.518 79.4653 175.219 79.435 176.093 79.2209L176.781 79.052L176.436 78.3642C176.141 77.7595 175.806 77.3538 175.433 77.1422C175.058 76.933 174.594 76.8952 174.04 77.0313V77.0338Z" fill="#262626"/>
<path d="M173.657 103.858C173.641 102.973 173.818 102.283 174.186 101.792C174.554 101.3 175.259 100.9 176.295 100.597C176.423 100.552 176.693 100.476 177.103 100.368C177.514 100.26 177.822 100.161 178.018 100.073C178.373 99.9372 178.63 99.7633 178.789 99.5441C178.95 99.3274 179.026 99.0604 179.021 98.7479L179.013 98.3826L174.858 98.4582L174.879 99.529L173.936 99.5466L173.825 93.5298L174.768 93.5122L174.788 94.583L178.943 94.5074L178.935 94.1446C178.93 93.8296 178.842 93.5676 178.673 93.3559C178.504 93.1443 178.242 92.9704 177.882 92.8344C177.68 92.7512 177.368 92.663 176.945 92.5623C176.521 92.464 176.252 92.401 176.138 92.3733C175.105 92.1213 174.392 91.756 173.997 91.2772C173.601 90.7985 173.397 90.1233 173.382 89.254C173.364 88.2688 173.619 87.5532 174.145 87.1098C174.672 86.6638 175.607 86.4295 176.95 86.4043L176.967 87.324C176.212 87.3391 175.652 87.3945 175.289 87.4928C174.926 87.591 174.748 87.7422 174.75 87.9413C174.75 88.0421 174.801 88.1302 174.894 88.2058C174.987 88.2814 175.151 88.3545 175.38 88.4225C175.466 88.4502 175.607 88.483 175.801 88.5208C175.995 88.5611 176.133 88.5938 176.222 88.619C176.952 88.7904 177.464 88.9743 177.754 89.1683C178.043 89.3623 178.298 89.6445 178.519 90.0099C178.666 90.2795 178.817 90.6146 178.965 91.0202C179.114 91.4234 179.29 91.9752 179.49 92.6706C179.626 92.3834 179.845 92.139 180.14 91.9399C180.437 91.7409 180.946 91.5292 181.672 91.3024C182.238 91.1336 182.634 90.985 182.853 90.8514C183.072 90.7179 183.236 90.5718 183.35 90.413C183.294 90.4558 183.226 90.4911 183.148 90.5138C183.07 90.5365 182.987 90.5491 182.901 90.5516C182.43 90.5592 182.044 90.413 181.747 90.1132C181.45 89.8108 181.296 89.4178 181.286 88.934C181.276 88.42 181.422 88.0143 181.724 87.7145C182.027 87.4172 182.448 87.2635 182.989 87.2534C183.589 87.2433 184.068 87.4273 184.423 87.8052C184.781 88.1831 184.965 88.6795 184.975 89.2943C184.987 89.9645 184.793 90.5264 184.395 90.9749C183.997 91.4234 183.173 91.8618 181.923 92.2851C181.044 92.5874 180.477 92.8495 180.225 93.0763C179.973 93.303 179.85 93.5726 179.855 93.8876L179.865 94.4872L183.763 94.4167L183.745 93.4114L184.688 93.3937L184.796 99.2821L183.854 99.2997L183.836 98.2944L179.938 98.3649L179.948 98.9646C179.953 99.2922 180.092 99.5693 180.359 99.7936C180.626 100.018 181.213 100.27 182.117 100.554C183.367 100.932 184.196 101.333 184.602 101.761C185.01 102.19 185.219 102.724 185.232 103.366C185.242 103.981 185.078 104.483 184.735 104.876C184.393 105.266 183.922 105.468 183.322 105.48C182.78 105.49 182.352 105.354 182.039 105.075C181.727 104.795 181.566 104.397 181.556 103.883C181.546 103.384 181.684 102.978 181.971 102.666C182.259 102.354 182.637 102.192 183.108 102.185C183.208 102.185 183.294 102.192 183.365 102.212C183.435 102.233 183.508 102.263 183.581 102.306C183.478 102.137 183.314 101.988 183.093 101.865C182.868 101.741 182.448 101.59 181.83 101.416C181.097 101.215 180.583 101.026 180.288 100.844C179.991 100.663 179.769 100.446 179.623 100.192C179.449 100.895 179.296 101.454 179.162 101.87C179.026 102.285 178.89 102.626 178.751 102.885C178.557 103.273 178.318 103.57 178.028 103.777C177.738 103.981 177.232 104.185 176.509 104.384C175.771 104.583 175.345 104.722 175.231 104.805C175.118 104.886 175.063 104.984 175.065 105.097C175.068 105.296 175.257 105.44 175.629 105.526C176.002 105.611 176.559 105.647 177.303 105.634L177.32 106.554C175.965 106.579 175.017 106.382 174.483 105.964C173.946 105.546 173.669 104.843 173.652 103.858H173.657Z" fill="#262626"/>
<path d="M173.458 112.649L173.223 113.737L172.301 113.538L173.657 107.257L174.579 107.456L174.281 108.837L183.052 110.731L183.35 109.351L184.272 109.55L182.916 115.829L181.994 115.63L182.228 114.541L178.459 113.727L177.764 116.952L181.533 117.766L181.767 116.678L182.689 116.877L181.334 123.158L180.412 122.959L180.709 121.578L171.938 119.684L171.641 121.064L170.719 120.865L172.074 114.586L172.996 114.785L172.762 115.874L176.844 116.756L177.539 113.533L173.458 112.651V112.649Z" fill="#262626"/>
<path d="M178.315 131.768C177.673 133.295 176.622 134.363 175.163 134.973C173.704 135.583 172.2 135.56 170.648 134.908C169.121 134.265 168.078 133.212 167.516 131.75C166.954 130.289 166.995 128.795 167.637 127.271C168.287 125.731 169.335 124.658 170.782 124.053C172.23 123.446 173.737 123.473 175.302 124.134C176.841 124.781 177.89 125.832 178.449 127.283C179.006 128.734 178.963 130.231 178.313 131.768H178.315ZM177.388 131.378C177.643 130.773 177.491 130.193 176.935 129.642C176.378 129.09 175.314 128.482 173.75 127.822C172.145 127.147 170.943 126.799 170.144 126.779C169.345 126.762 168.819 127.054 168.564 127.659C168.315 128.251 168.481 128.835 169.068 129.417C169.653 129.997 170.696 130.602 172.195 131.234C173.735 131.881 174.921 132.217 175.758 132.237C176.594 132.257 177.136 131.97 177.386 131.378H177.388Z" fill="#262626"/>
<path d="M161.507 138.881C162.449 137.399 163.676 136.474 165.193 136.109C166.71 135.744 168.204 136.028 169.673 136.963C171.084 137.858 171.953 139.044 172.283 140.523C172.613 142.002 172.341 143.429 171.47 144.802C170.628 146.127 169.545 146.941 168.219 147.241C166.894 147.541 165.601 147.291 164.334 146.487C164.213 146.412 164.102 146.336 163.996 146.261C163.891 146.185 163.795 146.112 163.707 146.039L167.38 140.254L167.181 140.128C165.964 139.354 164.936 138.974 164.102 138.984C163.266 138.994 162.6 139.392 162.102 140.176C161.688 140.826 161.537 141.478 161.646 142.131C161.754 142.784 162.127 143.439 162.759 144.094L162.152 144.85C161.27 144.053 160.774 143.124 160.66 142.063C160.547 141.002 160.829 139.941 161.502 138.881H161.507ZM170.688 144.28C170.981 143.822 170.938 143.328 170.568 142.794C170.195 142.262 169.398 141.582 168.181 140.758L166.516 143.378C167.841 144.22 168.796 144.696 169.378 144.804C169.96 144.913 170.399 144.736 170.688 144.28Z" fill="#262626"/>
<path d="M163.583 153.016C163.042 153.661 162.402 153.996 161.663 154.019C160.925 154.041 160.273 153.815 159.703 153.338C159.146 152.87 158.816 152.273 158.718 151.547C158.62 150.821 158.841 150.136 159.383 149.491C159.935 148.836 160.57 148.488 161.29 148.45C162.011 148.413 162.661 148.637 163.243 149.123C163.833 149.619 164.175 150.227 164.269 150.95C164.362 151.67 164.133 152.361 163.583 153.016Z" fill="#262626"/>
<path d="M148.614 154.532L153.258 150.345L153.888 151.045L152.837 151.993L158.846 158.657L159.897 157.71L160.527 158.41L155.883 162.598C154.515 163.832 153.374 164.558 152.457 164.78C151.539 165.001 150.766 164.759 150.136 164.062C149.657 163.532 149.481 162.935 149.607 162.275C149.733 161.615 150.159 160.889 150.887 160.098C149.897 160.877 149.037 161.3 148.312 161.368C147.586 161.436 146.954 161.174 146.42 160.582C145.739 159.829 145.565 158.967 145.893 157.999C146.221 157.029 147.128 155.878 148.612 154.537L148.614 154.532ZM152.741 157.702L149.945 154.6L149.627 154.888C149.002 155.452 148.667 155.976 148.622 156.457C148.576 156.941 148.798 157.453 149.284 157.992C149.781 158.544 150.267 158.826 150.741 158.841C151.214 158.856 151.776 158.571 152.421 157.987L152.739 157.7L152.741 157.702ZM152.928 161.456C153.359 161.932 153.797 162.174 154.248 162.184C154.697 162.192 155.183 161.963 155.702 161.494L155.956 161.265L153.361 158.387L152.93 158.775C152.454 159.206 152.215 159.627 152.212 160.043C152.212 160.456 152.449 160.93 152.928 161.459V161.456Z" fill="#262626"/>
<path d="M134.88 164.017C135.618 163.555 136.311 163.382 136.956 163.5C137.603 163.616 138.203 164.024 138.757 164.722C138.503 163.886 138.526 163.102 138.823 162.369C139.12 161.636 139.675 161.013 140.486 160.504C141.333 159.973 142.131 159.756 142.882 159.849C143.633 159.942 144.23 160.348 144.679 161.061C145.185 161.872 145.245 162.727 144.857 163.626C144.469 164.526 143.613 165.533 142.29 166.65L141.096 167.65L141.925 168.975C142.378 169.701 142.877 170.147 143.419 170.313C143.96 170.479 144.553 170.361 145.193 169.96C145.46 169.794 145.694 169.6 145.901 169.378C146.107 169.157 146.241 168.958 146.301 168.786C145.81 168.892 145.402 168.882 145.072 168.761C144.742 168.64 144.459 168.391 144.225 168.015C143.938 167.554 143.845 167.106 143.95 166.67C144.056 166.234 144.343 165.866 144.817 165.571C145.314 165.261 145.787 165.148 146.238 165.236C146.689 165.324 147.06 165.599 147.347 166.057C147.856 166.869 147.836 167.799 147.289 168.849C146.742 169.9 145.828 170.827 144.545 171.631C143.288 172.42 142.146 172.78 141.128 172.712C140.108 172.644 139.309 172.15 138.735 171.23L135.643 166.294C135.484 166.04 135.326 165.874 135.167 165.795C135.008 165.717 134.844 165.732 134.676 165.838C134.446 165.982 134.371 166.251 134.451 166.65C134.532 167.045 134.756 167.542 135.129 168.134L134.348 168.622C133.673 167.547 133.378 166.645 133.461 165.916C133.544 165.191 134.018 164.558 134.875 164.019L134.88 164.017ZM141.665 163.634C141.431 163.258 141.184 163.026 140.924 162.936C140.665 162.845 140.385 162.895 140.083 163.084C139.659 163.349 139.46 163.757 139.483 164.306C139.508 164.856 139.758 165.511 140.236 166.274L140.612 166.874L141.156 166.33C141.637 165.861 141.917 165.415 142 164.992C142.081 164.571 141.97 164.117 141.668 163.634H141.665Z" fill="#262626"/>
<path d="M116.073 171.709C116.91 171.417 117.618 171.369 118.202 171.566C118.787 171.762 119.384 172.304 119.999 173.193C120.082 173.299 120.238 173.534 120.47 173.891C120.702 174.249 120.891 174.509 121.037 174.667C121.276 174.962 121.523 175.151 121.78 175.234C122.037 175.317 122.314 175.307 122.609 175.204L122.952 175.083L121.576 171.163L120.566 171.518L120.253 170.628L125.933 168.638L126.245 169.527L125.235 169.883L126.61 173.803L126.953 173.682C127.25 173.579 127.472 173.413 127.618 173.188C127.767 172.962 127.847 172.657 127.865 172.274C127.88 172.057 127.868 171.732 127.83 171.299C127.792 170.865 127.767 170.591 127.757 170.472C127.674 169.411 127.797 168.62 128.127 168.096C128.457 167.572 129.034 167.166 129.856 166.877C130.785 166.552 131.544 166.569 132.133 166.93C132.72 167.29 133.237 168.104 133.68 169.371L132.811 169.676C132.562 168.963 132.332 168.449 132.123 168.137C131.914 167.824 131.718 167.701 131.529 167.766C131.435 167.799 131.365 167.872 131.322 167.985C131.279 168.099 131.262 168.275 131.269 168.514C131.269 168.605 131.282 168.749 131.307 168.945C131.33 169.142 131.342 169.285 131.345 169.374C131.41 170.122 131.398 170.664 131.302 171.001C131.209 171.336 131.022 171.667 130.743 171.992C130.533 172.216 130.261 172.463 129.924 172.732C129.586 173.002 129.12 173.34 128.52 173.745C128.838 173.786 129.135 173.914 129.417 174.133C129.699 174.352 130.06 174.771 130.503 175.385C130.841 175.872 131.105 176.199 131.302 176.366C131.496 176.532 131.687 176.643 131.874 176.698C131.813 176.658 131.76 176.605 131.715 176.537C131.67 176.469 131.632 176.396 131.604 176.315C131.448 175.872 131.468 175.459 131.66 175.081C131.854 174.703 132.179 174.433 132.637 174.272C133.121 174.103 133.554 174.113 133.932 174.307C134.31 174.499 134.587 174.851 134.769 175.365C134.968 175.932 134.943 176.444 134.693 176.9C134.446 177.358 134.031 177.688 133.451 177.89C132.819 178.112 132.224 178.104 131.672 177.867C131.12 177.63 130.448 176.983 129.654 175.93C129.092 175.189 128.664 174.733 128.369 174.564C128.074 174.395 127.779 174.363 127.485 174.466L126.918 174.665L128.208 178.344L129.158 178.011L129.47 178.9L123.912 180.848L123.599 179.959L124.549 179.626L123.259 175.947L122.692 176.146C122.382 176.255 122.163 176.471 122.035 176.796C121.906 177.122 121.851 177.759 121.863 178.706C121.896 180.012 121.775 180.924 121.496 181.445C121.216 181.967 120.775 182.335 120.168 182.546C119.588 182.75 119.059 182.75 118.58 182.546C118.102 182.345 117.761 181.959 117.562 181.395C117.384 180.883 117.378 180.435 117.545 180.049C117.714 179.664 118.039 179.389 118.525 179.218C118.996 179.052 119.427 179.057 119.812 179.233C120.2 179.407 120.47 179.717 120.626 180.163C120.659 180.256 120.677 180.342 120.682 180.415C120.684 180.488 120.679 180.566 120.662 180.649C120.79 180.498 120.878 180.296 120.926 180.044C120.974 179.792 120.984 179.346 120.956 178.706C120.919 177.948 120.936 177.401 121.017 177.064C121.095 176.726 121.231 176.446 121.427 176.227C120.707 176.282 120.125 176.313 119.689 176.315C119.251 176.315 118.888 176.293 118.598 176.245C118.167 176.184 117.812 176.048 117.525 175.839C117.24 175.63 116.89 175.212 116.471 174.584C116.051 173.944 115.784 173.584 115.673 173.503C115.562 173.42 115.451 173.4 115.343 173.438C115.154 173.503 115.078 173.728 115.113 174.108C115.149 174.489 115.29 175.03 115.534 175.731L114.665 176.036C114.216 174.756 114.105 173.796 114.335 173.156C114.564 172.516 115.144 172.032 116.073 171.707V171.709Z" fill="#262626"/>
<path d="M107.675 174.244L106.567 174.36L106.468 173.423L112.858 172.755L112.956 173.692L111.55 173.838L112.483 182.763L113.889 182.617L113.987 183.554L107.597 184.222L107.499 183.284L108.608 183.168L108.207 179.334L104.926 179.676L105.327 183.511L106.436 183.395L106.534 184.333L100.144 185L100.046 184.063L101.452 183.917L100.52 174.992L99.1136 175.138L99.0154 174.201L105.405 173.533L105.503 174.471L104.395 174.587L104.828 178.742L108.109 178.399L107.675 174.244Z" fill="#262626"/>
<path d="M91.0484 184.841C89.398 184.71 88.0526 184.05 87.0145 182.858C85.9764 181.667 85.5254 180.23 85.6564 178.552C85.7874 176.902 86.4576 175.579 87.6671 174.586C88.8765 173.594 90.3076 173.16 91.958 173.291C93.6234 173.422 94.9714 174.08 96.002 175.264C97.0325 176.448 97.481 177.887 97.3474 179.58C97.2164 181.246 96.5487 182.571 95.3469 183.559C94.145 184.547 92.7113 184.972 91.0459 184.841H91.0484ZM91.1265 183.839C91.7816 183.891 92.283 183.564 92.6332 182.861C92.9834 182.158 93.2228 180.959 93.3564 179.265C93.4924 177.529 93.4445 176.28 93.2102 175.516C92.9759 174.753 92.5324 174.345 91.8773 174.294C91.2374 174.244 90.7334 174.586 90.3681 175.325C90.0027 176.063 89.7558 177.242 89.6273 178.865C89.4963 180.53 89.5542 181.762 89.7986 182.564C90.0431 183.362 90.4865 183.788 91.1265 183.839Z" fill="#262626"/>
<path d="M79.0072 171.129C80.7104 171.555 81.9753 172.432 82.7967 173.757C83.6206 175.083 83.8197 176.589 83.3964 178.28C82.9907 179.9 82.1391 181.099 80.8389 181.878C79.5413 182.657 78.1001 182.848 76.5228 182.452C74.9985 182.072 73.8873 181.299 73.1843 180.137C72.4814 178.975 72.3125 177.668 72.6779 176.211C72.7132 176.073 72.7484 175.942 72.7862 175.818C72.824 175.695 72.8643 175.581 72.9047 175.473L79.5539 177.139L79.6119 176.909C79.9621 175.511 79.9999 174.417 79.7278 173.626C79.4557 172.838 78.8686 172.329 77.9666 172.104C77.2182 171.918 76.5531 171.978 75.966 172.288C75.3814 172.598 74.8775 173.155 74.4542 173.964L73.5446 173.626C74.0234 172.54 74.749 171.774 75.7191 171.333C76.6916 170.892 77.7852 170.824 79.0047 171.129H79.0072ZM76.7748 181.543C77.3014 181.674 77.7574 181.48 78.1455 180.958C78.5335 180.437 78.9266 179.469 79.3247 178.053L76.3112 177.3C75.9307 178.824 75.7795 179.877 75.8602 180.465C75.9408 181.052 76.2457 181.412 76.7723 181.543H76.7748Z" fill="#262626"/>
<path d="M66.2325 177.542C65.4515 177.229 64.9324 176.728 64.6779 176.035C64.4235 175.342 64.4335 174.649 64.7107 173.961C64.9803 173.286 65.4439 172.784 66.104 172.464C66.7617 172.142 67.4823 172.139 68.2659 172.449C69.0621 172.767 69.5912 173.261 69.8532 173.936C70.1153 174.609 70.1052 175.297 69.8255 176C69.5408 176.715 69.0696 177.232 68.4145 177.547C67.7594 177.862 67.0338 177.862 66.2376 177.544L66.2325 177.542Z" fill="#262626"/>
<path d="M60.1075 163.795L65.5373 166.899L65.0687 167.718L63.8416 167.018L59.3869 174.808L60.614 175.511L60.1453 176.33L54.7155 173.226C53.1156 172.311 52.0699 171.455 51.5736 170.654C51.0772 169.852 51.0646 169.043 51.5307 168.225C51.886 167.605 52.395 167.252 53.0627 167.164C53.7304 167.076 54.5518 167.255 55.5319 167.7C54.4837 167.003 53.8135 166.32 53.5212 165.65C53.229 164.982 53.2819 164.299 53.6775 163.606C54.1814 162.727 54.9448 162.291 55.9653 162.301C56.9882 162.311 58.3665 162.81 60.1025 163.803L60.1075 163.795ZM54.8743 170.054C54.5543 170.611 54.4636 171.105 54.5946 171.535C54.7281 171.966 55.0985 172.354 55.7057 172.699L56.0031 172.868L57.9281 169.502L57.4266 169.215C56.8698 168.895 56.3936 168.802 55.998 168.93C55.605 169.059 55.2295 169.431 54.8743 170.051V170.054ZM58.3841 168.706L60.4578 165.08L60.0848 164.868C59.3542 164.45 58.752 164.294 58.2783 164.402C57.8046 164.511 57.3889 164.881 57.026 165.513C56.6582 166.158 56.5397 166.708 56.6758 167.164C56.8093 167.62 57.2553 168.063 58.0112 168.494L58.3841 168.706Z" fill="#262626"/>
<path d="M46.8139 153.709C47.4842 154.266 47.8646 154.871 47.9528 155.521C48.0435 156.171 47.8445 156.869 47.3531 157.615C48.0687 157.113 48.8196 156.889 49.6107 156.944C50.4019 156.997 51.1653 157.333 51.9011 157.942C52.6695 158.582 53.1256 159.273 53.2692 160.013C53.4128 160.757 53.2163 161.45 52.6771 162.097C52.0648 162.833 51.2712 163.158 50.2961 163.07C49.321 162.981 48.0964 162.483 46.6225 161.576L45.2997 160.754L44.2994 161.956C43.7526 162.614 43.483 163.228 43.4956 163.793C43.5082 164.36 43.803 164.884 44.385 165.368C44.6269 165.569 44.8839 165.733 45.1611 165.859C45.4357 165.985 45.665 166.05 45.8489 166.055C45.597 165.622 45.476 165.232 45.4911 164.879C45.5037 164.529 45.6524 164.181 45.9346 163.841C46.2823 163.422 46.6779 163.196 47.1264 163.16C47.5749 163.125 48.0133 163.284 48.4391 163.642C48.8901 164.017 49.1421 164.43 49.2 164.886C49.258 165.342 49.1118 165.778 48.7641 166.197C48.1519 166.932 47.2624 167.204 46.0933 167.013C44.9242 166.821 43.7602 166.242 42.5961 165.274C41.4547 164.324 40.7568 163.354 40.5048 162.364C40.2529 161.374 40.4721 160.462 41.165 159.628L44.889 155.148C45.0804 154.916 45.1888 154.715 45.214 154.541C45.2392 154.367 45.1737 154.216 45.02 154.087C44.8108 153.913 44.5312 153.926 44.1784 154.128C43.8282 154.327 43.4276 154.697 42.9791 155.234L42.2711 154.644C43.0849 153.666 43.8484 153.105 44.5639 152.958C45.2795 152.812 46.0278 153.062 46.8089 153.709H46.8139ZM49.2958 160.036C49.578 159.696 49.7241 159.389 49.7291 159.114C49.7342 158.839 49.6006 158.587 49.326 158.361C48.943 158.041 48.492 157.978 47.978 158.172C47.464 158.366 46.9198 158.809 46.3428 159.499L45.8918 160.044L46.5771 160.391C47.1743 160.701 47.6857 160.83 48.109 160.774C48.5348 160.719 48.9304 160.472 49.2958 160.034V160.036Z" fill="#262626"/>
<path d="M33.6086 138.254C34.1503 138.954 34.4174 139.614 34.4149 140.229C34.4123 140.844 34.0848 141.585 33.4322 142.446C33.3566 142.56 33.1853 142.781 32.9182 143.114C32.6511 143.447 32.4647 143.706 32.3588 143.898C32.1548 144.218 32.054 144.512 32.054 144.782C32.054 145.052 32.1497 145.311 32.3437 145.56L32.5655 145.848L35.8561 143.31L35.2035 142.461L35.9493 141.887L39.6229 146.654L38.8771 147.228L38.2245 146.379L34.9339 148.917L35.1556 149.204C35.3471 149.453 35.5739 149.612 35.8334 149.68C36.0954 149.751 36.4104 149.733 36.7783 149.627C36.9899 149.572 37.2948 149.458 37.6929 149.287C38.091 149.116 38.3455 149.005 38.4538 148.957C39.4339 148.544 40.2251 148.413 40.8273 148.561C41.4295 148.71 41.9964 149.131 42.528 149.821C43.1302 150.602 43.352 151.328 43.1932 151.998C43.0345 152.671 42.4247 153.414 41.3615 154.236L40.7996 153.505C41.3992 153.044 41.815 152.663 42.0468 152.369C42.2786 152.074 42.334 151.847 42.2106 151.688C42.1501 151.61 42.0594 151.567 41.9359 151.562C41.815 151.557 41.6411 151.595 41.4169 151.678C41.3312 151.708 41.2002 151.764 41.0213 151.849C40.8424 151.933 40.7114 151.991 40.6257 152.018C39.9353 152.316 39.4163 152.472 39.0686 152.489C38.7209 152.505 38.348 152.432 37.9524 152.268C37.6752 152.139 37.3527 151.958 36.9924 151.723C36.6321 151.489 36.1635 151.152 35.589 150.711C35.6495 151.023 35.6218 151.348 35.5008 151.683C35.3799 152.018 35.0977 152.494 34.6517 153.107C34.2964 153.58 34.0697 153.936 33.9714 154.173C33.8757 154.409 33.8303 154.624 33.8353 154.82C33.8555 154.752 33.8883 154.684 33.9386 154.619C33.989 154.553 34.047 154.495 34.115 154.442C34.4879 154.155 34.8835 154.044 35.3043 154.107C35.7251 154.173 36.0803 154.397 36.3776 154.78C36.6926 155.188 36.8161 155.601 36.7505 156.019C36.6876 156.438 36.4381 156.813 36.0098 157.146C35.5336 157.511 35.0422 157.65 34.5282 157.556C34.0168 157.463 33.5733 157.176 33.1979 156.69C32.7872 156.158 32.6108 155.594 32.6612 154.994C32.7141 154.394 33.1147 153.553 33.8656 152.469C34.3922 151.703 34.6895 151.154 34.7575 150.821C34.8256 150.489 34.7651 150.199 34.5736 149.95L34.2082 149.473L31.1217 151.852L31.7365 152.648L30.9907 153.223L27.3952 148.559L28.141 147.984L28.7558 148.781L31.8423 146.402L31.477 145.928C31.2754 145.669 31.0033 145.528 30.6531 145.508C30.3054 145.487 29.683 145.634 28.786 145.946C27.559 146.387 26.6519 146.558 26.0699 146.457C25.4878 146.357 24.999 146.052 24.6085 145.543C24.2331 145.057 24.0668 144.553 24.1096 144.036C24.1524 143.517 24.4094 143.074 24.8857 142.708C25.3165 142.378 25.7398 142.232 26.1555 142.27C26.5738 142.308 26.9391 142.532 27.2516 142.938C27.5564 143.333 27.6875 143.741 27.6421 144.165C27.5993 144.585 27.3902 144.941 27.0147 145.228C26.9366 145.288 26.861 145.334 26.7905 145.359C26.7199 145.387 26.6443 145.404 26.5612 145.414C26.7451 145.49 26.9643 145.51 27.2163 145.477C27.4708 145.445 27.8966 145.314 28.4963 145.087C29.2043 144.812 29.7309 144.658 30.0761 144.626C30.4213 144.595 30.7287 144.636 30.9983 144.752C30.7186 144.084 30.5094 143.542 30.3683 143.129C30.2298 142.713 30.1365 142.361 30.0937 142.071C30.0156 141.642 30.0332 141.262 30.1441 140.924C30.255 140.587 30.5397 140.123 31.0033 139.531C31.4795 138.931 31.7365 138.564 31.7793 138.432C31.8222 138.301 31.8096 138.191 31.739 138.1C31.6181 137.941 31.3812 137.939 31.031 138.092C30.6808 138.246 30.2121 138.548 29.6225 139.002L29.0607 138.271C30.134 137.442 31.0134 137.037 31.6911 137.054C32.3714 137.072 33.0114 137.47 33.6136 138.251L33.6086 138.254Z" fill="#262626"/>
<path d="M28.5542 131.083L28.0956 130.067L28.9548 129.679L31.6004 135.535L30.7412 135.923L30.1592 134.635L21.9805 138.332L22.5625 139.619L21.7033 140.007L19.0577 134.152L19.9169 133.764L20.3755 134.779L23.8878 133.192L22.5298 130.186L19.0174 131.773L19.476 132.789L18.6168 133.177L15.9712 127.321L16.8304 126.933L17.4124 128.22L25.5911 124.524L25.0091 123.237L25.8683 122.849L28.5139 128.704L27.6547 129.092L27.1961 128.077L23.3915 129.798L24.7496 132.804L28.5542 131.083Z" fill="#262626"/>
<path d="M13.2701 118.603C12.8796 116.993 13.0887 115.511 13.8975 114.153C14.7063 112.795 15.9308 111.918 17.5661 111.52C19.1761 111.13 20.64 111.354 21.9603 112.193C23.2806 113.032 24.1372 114.256 24.5278 115.866C24.9208 117.489 24.7167 118.976 23.913 120.324C23.1092 121.672 21.8822 122.546 20.2318 122.949C18.6092 123.342 17.1402 123.123 15.8275 122.289C14.5148 121.455 13.6632 120.225 13.2676 118.603H13.2701ZM14.2477 118.366C14.4039 119.003 14.8675 119.379 15.6461 119.492C16.4247 119.606 17.6366 119.459 19.287 119.059C20.9801 118.648 22.1518 118.212 22.8043 117.754C23.4569 117.295 23.7064 116.746 23.5502 116.106C23.399 115.481 22.9152 115.111 22.1014 114.992C21.2875 114.874 20.0882 115.007 18.5059 115.39C16.8832 115.783 15.7293 116.222 15.0464 116.705C14.3636 117.187 14.0965 117.741 14.2477 118.366Z" fill="#262626"/>
<path d="M22.5525 102.886C22.6785 104.637 22.2401 106.111 21.2373 107.308C20.2345 108.504 18.8663 109.162 17.1278 109.288C15.4623 109.406 14.0564 108.97 12.9124 107.98C11.7685 106.988 11.1361 105.682 11.0202 104.057C10.9068 102.49 11.2949 101.192 12.1792 100.162C13.0636 99.1314 14.2554 98.5645 15.7495 98.4561C15.8932 98.446 16.0267 98.441 16.1552 98.4385C16.2837 98.4385 16.4046 98.4385 16.5205 98.4435L17.0119 105.279L17.2462 105.262C18.6849 105.158 19.7356 104.853 20.4008 104.35C21.0659 103.843 21.3658 103.127 21.2977 102.203C21.2423 101.434 20.9778 100.82 20.499 100.361C20.0228 99.8999 19.335 99.595 18.4355 99.4463L18.4733 98.4763C19.655 98.5922 20.6074 99.0432 21.3305 99.8293C22.0536 100.615 22.4593 101.633 22.5475 102.888L22.5525 102.886ZM11.9626 104.009C12.0003 104.551 12.3279 104.924 12.9452 105.131C13.56 105.337 14.6031 105.408 16.0746 105.347L15.8528 102.251C14.2856 102.364 13.2375 102.55 12.7033 102.81C12.1717 103.07 11.9248 103.47 11.9626 104.012V104.009Z" fill="#262626"/>
<path d="M12.4613 92.7695C12.5117 91.9279 12.8266 91.2778 13.4036 90.8193C13.9806 90.3607 14.6408 90.1541 15.3815 90.1969C16.1072 90.2398 16.727 90.5245 17.241 91.0486C17.7525 91.5726 17.9843 92.2554 17.9339 93.097C17.8835 93.9512 17.5787 94.6088 17.0218 95.0699C16.465 95.531 15.8099 95.7376 15.054 95.6922C14.2855 95.6469 13.648 95.3621 13.1416 94.8381C12.6377 94.314 12.4084 93.6261 12.4613 92.7695Z" fill="#262626"/>
<path d="M23.578 82.6249L22.3434 88.7551L21.4187 88.5687L21.6984 87.1829L12.9024 85.4116L12.6227 86.7974L11.698 86.6109L12.9326 80.4807C13.2954 78.6741 13.7817 77.4118 14.3839 76.6887C14.9886 75.9655 15.7521 75.6985 16.6768 75.8824C17.3772 76.0235 17.8736 76.3964 18.1659 77.0011C18.4581 77.6058 18.5488 78.4448 18.4355 79.5132C18.7681 78.2987 19.2039 77.4471 19.7482 76.9583C20.2899 76.4695 20.9551 76.3057 21.7387 76.4644C22.7339 76.6635 23.3865 77.2505 23.699 78.2256C24.0139 79.1982 23.9711 80.6646 23.578 82.6249ZM15.9889 79.6316C15.359 79.5056 14.8601 79.5711 14.4948 79.8332C14.1294 80.0952 13.8775 80.5689 13.7389 81.2542L13.6709 81.5893L17.4704 82.3553L17.5838 81.7884C17.7098 81.1585 17.6519 80.6772 17.4049 80.3421C17.158 80.0095 16.6868 79.7702 15.9864 79.6291L15.9889 79.6316ZM18.375 82.5367L22.4694 83.3606L22.555 82.9398C22.7213 82.1134 22.6785 81.4936 22.4265 81.0778C22.1746 80.6621 21.6933 80.3849 20.9778 80.2388C20.2496 80.0927 19.6902 80.1557 19.3022 80.4253C18.9117 80.6974 18.632 81.2593 18.4607 82.1134L18.375 82.5342V82.5367Z" fill="#262626"/>
<path d="M28.9751 66.8419C28.6551 67.6532 28.2015 68.2025 27.612 68.4922C27.0224 68.782 26.2967 68.8122 25.4375 68.5804C26.138 69.102 26.5865 69.747 26.783 70.513C26.9795 71.2815 26.9039 72.1104 26.5537 72.9998C26.1884 73.9296 25.6744 74.5796 25.0167 74.95C24.3566 75.3204 23.636 75.3506 22.8524 75.0432C21.963 74.693 21.4061 74.0404 21.1819 73.0855C20.9602 72.1306 21.0483 70.8128 21.449 69.1297L21.8143 67.6154L20.3605 67.0435C19.5643 66.731 18.8966 66.668 18.3624 66.857C17.8283 67.046 17.4226 67.4919 17.1454 68.1974C17.0295 68.4897 16.9565 68.787 16.9212 69.0869C16.8859 69.3892 16.896 69.6261 16.9514 69.7999C17.284 69.4245 17.6191 69.1877 17.9568 69.0894C18.2944 68.9911 18.6698 69.0239 19.0805 69.1851C19.5844 69.3842 19.9246 69.6891 20.101 70.1048C20.2748 70.518 20.2622 70.9841 20.0581 71.5032C19.844 72.0474 19.529 72.4203 19.1133 72.6169C18.6975 72.8134 18.239 72.8134 17.7325 72.6169C16.8431 72.2666 16.3039 71.5057 16.12 70.3366C15.936 69.1675 16.12 67.8774 16.6743 66.469C17.2185 65.0882 17.9215 64.1207 18.7807 63.5689C19.6424 63.0171 20.5772 62.9415 21.5875 63.3371L27.0098 65.4687C27.2894 65.5796 27.5137 65.6173 27.6875 65.5871C27.8614 65.5569 27.9849 65.446 28.0579 65.2621C28.1562 65.0101 28.0579 64.7481 27.7581 64.476C27.4583 64.2038 26.982 63.9418 26.332 63.6848L26.6696 62.8281C27.8513 63.2943 28.6248 63.8435 28.9902 64.4785C29.353 65.1134 29.3505 65.9021 28.9801 66.8444L28.9751 66.8419ZM23.7469 71.1832C24.1601 71.3444 24.4952 71.3848 24.7572 71.3041C25.0193 71.2235 25.2158 71.0169 25.3468 70.6843C25.5307 70.2182 25.4476 69.7722 25.1024 69.3464C24.7572 68.9181 24.1651 68.5401 23.3286 68.21L22.671 67.9505L22.5551 68.7114C22.4467 69.3741 22.487 69.9007 22.671 70.2887C22.8549 70.6767 23.2152 70.9741 23.7469 71.1832Z" fill="#262626"/>
<path d="M39.5321 49.4799C39.0332 50.2132 38.4915 50.6717 37.907 50.8607C37.3224 51.0497 36.5161 50.969 35.4932 50.6188C35.3621 50.581 35.0976 50.4878 34.6995 50.3391C34.3014 50.188 33.994 50.0922 33.7823 50.0519C33.4145 49.9587 33.102 49.9536 32.8476 50.0368C32.5906 50.1224 32.3739 50.2938 32.1975 50.5533L31.9934 50.8531L35.4302 53.1888L36.0324 52.3044L36.8109 52.8336L33.4271 57.8098L32.6485 57.2807L33.2507 56.3938L29.8139 54.0581L29.6098 54.3605C29.4335 54.62 29.3528 54.8845 29.368 55.1541C29.3831 55.4237 29.499 55.7185 29.7131 56.036C29.8316 56.2199 30.0331 56.4744 30.3204 56.7994C30.6076 57.1245 30.7915 57.3311 30.8696 57.4193C31.5676 58.2205 31.938 58.931 31.9858 59.5509C32.0312 60.1682 31.8095 60.8384 31.3207 61.559C30.7663 62.3728 30.1465 62.8113 29.4587 62.8692C28.7708 62.9297 27.8713 62.582 26.7627 61.8261L27.2792 61.0652C27.9041 61.491 28.3954 61.7681 28.7481 61.8941C29.1009 62.0226 29.3352 62.0025 29.4461 61.8387C29.5015 61.7555 29.5141 61.6573 29.4813 61.5389C29.4486 61.423 29.3579 61.2693 29.2092 61.0828C29.1538 61.0123 29.058 60.9039 28.9245 60.7603C28.7884 60.6167 28.6952 60.5083 28.6398 60.4378C28.1409 59.8759 27.831 59.4299 27.7075 59.1049C27.5841 58.7799 27.5387 58.4019 27.5689 57.9761C27.6042 57.6712 27.6748 57.3109 27.7856 56.8952C27.8965 56.4795 28.0704 55.9277 28.3122 55.2448C28.0326 55.4011 27.7151 55.4741 27.3598 55.464C27.0046 55.454 26.4628 55.333 25.7422 55.1012C25.1803 54.9097 24.7747 54.8064 24.5177 54.7863C24.2632 54.7686 24.044 54.7913 23.8601 54.8568C23.9306 54.8543 24.0062 54.8644 24.0818 54.8921C24.1599 54.9198 24.233 54.9551 24.3035 55.003C24.6941 55.2675 24.9233 55.6102 24.9914 56.0284C25.0619 56.4467 24.9586 56.8574 24.6865 57.258C24.3967 57.6838 24.044 57.9308 23.6257 57.9988C23.2075 58.0693 22.7741 57.9509 22.3256 57.646C21.8292 57.3084 21.5445 56.8826 21.474 56.3661C21.4009 55.8496 21.537 55.3381 21.8822 54.8316C22.2601 54.2773 22.7414 53.9296 23.3259 53.7935C23.9105 53.6575 24.8352 53.7759 26.1 54.1513C26.992 54.4134 27.6067 54.5242 27.9444 54.4864C28.282 54.4486 28.539 54.3 28.7154 54.0379L29.053 53.5416L25.8304 51.3495L25.2635 52.181L24.4849 51.6519L27.7957 46.7814L28.5743 47.3106L28.0074 48.142L31.23 50.3341L31.5676 49.8377C31.7515 49.5656 31.7994 49.2607 31.7087 48.9231C31.618 48.5855 31.2854 48.0412 30.7109 47.2854C29.9072 46.2573 29.4637 45.4486 29.378 44.864C29.2924 44.2794 29.4309 43.7201 29.7913 43.1885C30.1364 42.682 30.5623 42.3645 31.0687 42.2436C31.5751 42.1227 32.0765 42.2285 32.5704 42.5661C33.0189 42.871 33.291 43.2288 33.3842 43.6369C33.4775 44.0451 33.3792 44.4634 33.092 44.8867C32.8098 45.2999 32.4646 45.5519 32.0488 45.64C31.6331 45.7307 31.2325 45.64 30.8419 45.378C30.7588 45.3226 30.6958 45.2646 30.6479 45.2067C30.6 45.1487 30.5597 45.0832 30.5245 45.0076C30.5119 45.2067 30.5597 45.4208 30.6706 45.6501C30.7815 45.8819 31.0385 46.2448 31.4416 46.7436C31.9228 47.3307 32.2328 47.7817 32.3713 48.0992C32.5099 48.4167 32.5654 48.7215 32.5376 49.0163C33.0844 48.5426 33.5329 48.1748 33.8831 47.9127C34.2333 47.6507 34.5407 47.4542 34.8028 47.3206C35.1858 47.114 35.5536 47.0107 35.9064 47.0107C36.2616 47.0107 36.7908 47.1367 37.4988 47.3937C38.2169 47.6583 38.6452 47.7893 38.7838 47.7893C38.9224 47.7893 39.0231 47.7414 39.0887 47.6457C39.202 47.4794 39.129 47.2551 38.8745 46.9704C38.62 46.6857 38.1841 46.3329 37.5718 45.9172L38.0884 45.1563C39.2096 45.9197 39.8697 46.6252 40.0663 47.2778C40.2628 47.9304 40.0839 48.6611 39.5296 49.4774L39.5321 49.4799Z" fill="#262626"/>
<path d="M44.7681 42.4353L45.5895 41.6819L46.2269 42.3748L41.4951 46.7211L40.8576 46.0282L41.8982 45.0733L35.8285 38.4643L34.7879 39.4193L34.1504 38.7264L38.8822 34.38L39.5197 35.0729L38.6983 35.8263L41.3061 38.6659L43.735 36.436L41.1272 33.5964L40.3058 34.3498L39.6684 33.6569L44.4002 29.3105L45.0377 30.0034L43.9971 30.9584L50.0668 37.5673L51.1074 36.6124L51.7449 37.3053L47.0131 41.6517L46.3756 40.9588L47.197 40.2054L44.3725 37.1289L41.9436 39.3588L44.7681 42.4353Z" fill="#262626"/>
<path d="M51.8102 24.0141C53.2136 23.1372 54.6876 22.8676 56.2321 23.2078C57.7741 23.5479 58.9936 24.4323 59.8856 25.861C60.7624 27.2644 61.0119 28.7258 60.6314 30.2451C60.2509 31.7644 59.3565 32.9613 57.953 33.8381C56.537 34.7225 55.0605 34.9971 53.5286 34.6595C51.9941 34.3218 50.7797 33.4324 49.8777 31.9912C48.9933 30.5752 48.7388 29.1138 49.1167 27.6045C49.4947 26.0978 50.3942 24.8985 51.8102 24.0141ZM52.3444 24.8682C51.7875 25.2159 51.5784 25.7778 51.7145 26.5488C51.853 27.3223 52.3721 28.4285 53.2716 29.8697C54.1963 31.3462 54.9774 32.3238 55.6199 32.7975C56.2624 33.2712 56.862 33.3342 57.4189 32.9864C57.9631 32.6463 58.1647 32.0718 58.0186 31.2605C57.8749 30.4492 57.371 29.3557 56.5068 27.9749C55.6224 26.5589 54.8413 25.6014 54.1686 25.1051C53.4958 24.6087 52.8861 24.5306 52.3418 24.8707L52.3444 24.8682Z" fill="#262626"/>
<path d="M69.6493 27.8685C68.0266 28.5387 66.4897 28.5866 65.0384 28.0121C63.5871 27.4376 62.5313 26.3441 61.8662 24.7341C61.2287 23.1896 61.201 21.7181 61.7805 20.3197C62.3625 18.9213 63.4031 17.911 64.9073 17.2886C66.3586 16.6889 67.7117 16.6486 68.969 17.1626C70.2237 17.6792 71.1384 18.629 71.7103 20.0148C71.7657 20.1459 71.8136 20.2744 71.8565 20.3953C71.8993 20.5162 71.9346 20.6321 71.9648 20.743L65.6305 23.3584L65.7212 23.5751C66.273 24.9079 66.8928 25.81 67.5807 26.2837C68.271 26.7573 69.0446 26.8153 69.9012 26.46C70.6143 26.1652 71.1132 25.7193 71.4004 25.1221C71.6876 24.525 71.7607 23.7766 71.6196 22.8771L72.5519 22.6075C72.8139 23.7666 72.6854 24.8122 72.1664 25.7445C71.6473 26.6767 70.8083 27.3822 69.6467 27.8635L69.6493 27.8685ZM65.25 18.1705C64.7486 18.3771 64.4966 18.8054 64.4941 19.4555C64.4941 20.1055 64.7511 21.1184 65.2752 22.4941L68.1451 21.3074C67.5454 19.8561 67.0389 18.9188 66.6232 18.4955C66.2075 18.0722 65.7514 17.9639 65.25 18.1705Z" fill="#262626"/>
<path d="M77.2107 14.863C78.0245 14.6488 78.7401 14.7445 79.3574 15.1502C79.9747 15.5559 80.3753 16.1177 80.5668 16.8358C80.7533 17.5388 80.6752 18.2166 80.3375 18.8666C79.9999 19.5167 79.4229 19.9501 78.6091 20.1642C77.7801 20.3834 77.062 20.3003 76.4498 19.9148C75.84 19.5293 75.4369 18.9699 75.2429 18.2392C75.0463 17.4934 75.1169 16.8005 75.457 16.1555C75.7972 15.513 76.3817 15.0822 77.2082 14.863H77.2107Z" fill="#262626"/>
</g>
<defs>
<clipPath id="clip0_2839_6211">
<rect width="174.234" height="174" fill="white" transform="translate(11 11)"/>
</clipPath>
</defs>
</svg>
