<svg width="508" height="456" viewBox="0 0 508 456" fill="none" xmlns="http://www.w3.org/2000/svg">
<path d="M685.377 514.829C776.135 514.829 791 465.52 791 380.208H757.357C757.357 447.518 748.751 463.955 737.797 463.955C724.497 463.955 719.802 443.605 710.413 406.819C679.9 285.504 671.294 269.068 535.94 225.238C614.961 198.627 582.101 2.95824 650.169 -3.30318C627.48 9.21967 623.568 31.1346 623.568 49.9188C623.568 85.1393 651.734 108.62 691.636 108.62C731.538 108.62 760.487 79.6605 760.487 28.7866C760.487 -24.4355 721.367 -51.8291 675.206 -51.8291C517.162 -51.8291 586.013 208.802 496.82 208.802H468.654V-4.08585H510.903V-38.5236L281.662 -38.5236V-4.08585L323.911 -4.08585V208.802L293.398 208.802C204.205 208.802 273.838 -51.8291 115.012 -51.8291C69.633 -51.8291 30.5134 -24.4355 30.5134 28.7866C30.5134 79.6605 59.4619 108.62 101.711 108.62C142.396 108.62 165.085 84.3566 165.085 49.1362C165.085 24.8732 154.914 3.74091 137.701 -7.21656C207.334 13.9157 172.127 203.323 249.584 225.238C118.924 270.634 111.1 285.504 80.5865 406.819C71.1978 443.605 66.5035 463.955 53.9852 463.955C42.2493 463.955 33.6429 447.518 33.6429 380.208H0C0 467.085 14.0831 514.829 105.623 514.829C183.08 514.829 212.029 472.564 230.024 407.602C248.801 344.205 251.148 243.24 305.134 243.24L323.911 243.24L323.911 467.085H281.662V501.523H510.903V467.085H468.654L468.654 243.24H485.866C539.852 243.24 541.416 344.205 560.194 407.602C578.189 472.564 607.92 514.829 685.377 514.829Z" fill="#F5F3F0"/>
</svg>
