<svg width="99" height="206" viewBox="0 0 99 206" fill="none" xmlns="http://www.w3.org/2000/svg">
    <path d="M263.407 211.78C298.287 211.78 304 192.83 304 160.042H291.07C291.07 185.911 287.763 192.228 283.553 192.228C278.441 192.228 276.637 184.407 273.029 170.269C261.302 123.645 257.994 117.328 205.974 100.484C236.344 90.2563 223.715 15.0561 249.875 12.6497C241.155 17.4625 239.652 25.8849 239.652 33.1041C239.652 46.6402 250.477 55.6642 265.812 55.6642C281.147 55.6642 292.273 44.5346 292.273 24.9825C292.273 4.52803 277.238 -6 259.498 -6C198.758 -6 225.219 94.1668 190.94 94.1668H180.115V12.3489L196.352 12.3489V-0.886393L108.249 -0.886393V12.3489H124.487L124.487 94.1668H112.76C78.4807 94.1668 105.242 -6 44.2018 -6C26.7616 -6 11.727 4.52803 11.727 24.9825C11.727 44.5346 22.8526 55.6642 39.09 55.6642C54.726 55.6642 63.4461 46.3394 63.4461 32.8033C63.4461 23.4785 59.5371 15.3569 52.9219 11.1457C79.6835 19.2673 66.1523 92.0612 95.9209 100.484C45.7052 117.93 42.6983 123.645 30.9713 170.269C27.363 184.407 25.5589 192.228 20.7478 192.228C16.2374 192.228 12.9298 185.911 12.9298 160.042H0C0 193.431 5.41246 211.78 40.5935 211.78C70.362 211.78 81.4876 195.537 88.4036 170.57C95.6202 146.205 96.5223 107.402 117.27 107.402H124.487V193.431H108.249V206.666L196.352 206.666V193.431H180.115L180.115 107.402H186.73C207.478 107.402 208.079 146.205 215.296 170.57C222.212 195.537 233.638 211.78 263.407 211.78Z" fill="#F5F3F0"/>
</svg>
